<svg width="16" height="16" viewBox="0 0 16 16" fill="none" xmlns="http://www.w3.org/2000/svg">
<path d="M13.9945 1.06276L1.43443 5.79427L1.42614 5.79741C1.28904 5.85152 1.17159 5.94519 1.08944 6.06768C1.00611 6.19194 0.963168 6.33887 0.966488 6.48844C0.969798 6.63802 1.0192 6.78291 1.10794 6.90335C1.19665 7.02375 1.32034 7.11382 1.46214 7.16131L1.47478 7.16532L1.47695 7.16601L5.76634 8.99779C5.84575 9.02167 5.93003 9.02441 6.01084 9.00574C6.09206 8.98698 6.16693 8.94724 6.22799 8.89049L11.8918 3.62436C11.9144 3.6018 13.5591 1.50005 13.9945 1.06276C15.5591 1 14.3511 2.43463 14.3511 2.43463C14.3511 2.43463 14.2188 2.64735 14.1011 2.99132C14.0784 2.96862 14.1308 3.00361 14.1011 2.99132C14.1238 3.01401 14.6841 3.42114 14.0953 2.98364C14.1076 3.01329 14.1011 2.95922 14.1011 2.99132C14.1011 3.02341 10.9827 12.2336 10.6791 13.0743C9.48689 16.3751 9.97923 14.6696 6.95766 10.0561V9.86347L7.04299 9.70269L13.9945 1.06276ZM13.9945 1.06276C14.1602 1.02896 14.2142 1.03337 14.3511 1.06269C14.4881 1.09202 14.6083 1.12894 14.7074 1.22795M13.9945 1.06276L14.3511 1.06269L14.7074 1.22795M14.7074 1.22795C14.8065 1.32743 14.8746 1.45347 14.9036 1.59084C14.9325 1.72823 14.921 1.87104 14.8705 2.00204L10.1397 14.4993L14.7074 1.22795ZM10.1397 14.4993L9.56004 14.9083C9.71448 14.9092 9.729 14.8408 9.86339 14.8408C9.99159 14.7546 10.104 14.6514 10.1615 14.508L10.1397 14.4993C10.084 14.6382 9.98757 14.7573 9.86339 14.8408C9.74257 14.8835 9.70979 14.9092 9.56004 14.9083M10.1397 14.4993L9.56004 14.9083ZM10.1397 14.4993L9.56004 14.9083ZM10.1397 14.4993C9.83227 15.2658 8.85239 14.773 8.75239 14.4833C8.768 14.4563 8.74832 14.4718 8.74645 14.4655L6.95766 10.0561M9.56004 14.9083C9.26473 14.8948 8.87161 14.7569 8.77455 14.4757C8.77253 14.4703 8.77064 14.4646 8.7689 14.4588L8.768 14.4563L6.9357 10.1644M6.9357 10.1644L6.93606 10.1656L6.95766 10.0561M6.9357 10.1644C6.91182 10.085 6.90907 10.0007 6.92774 9.91985C6.9465 9.83863 7.00032 9.78308 7.04299 9.70269L6.92774 9.91985C6.98049 10.0614 6.93225 9.97238 6.95766 10.0561M6.9357 10.1644L7.11902 10.4539L6.95766 10.0561" fill="black"/>
<path d="M13.9945 1.06276L1.43443 5.79427L1.42614 5.79741C1.28904 5.85152 1.17159 5.94519 1.08944 6.06768C1.00611 6.19194 0.963168 6.33887 0.966488 6.48844C0.969798 6.63802 1.0192 6.78291 1.10794 6.90335C1.19665 7.02375 1.32034 7.11382 1.46214 7.16131L1.47478 7.16532L1.47695 7.16601L5.76634 8.99779C5.84575 9.02167 5.93003 9.02441 6.01084 9.00574C6.09206 8.98698 6.16693 8.94724 6.22799 8.89049L11.8918 3.62436C11.9144 3.6018 13.5591 1.50005 13.9945 1.06276ZM13.9945 1.06276C15.5591 1 14.3511 2.43463 14.3511 2.43463C14.3511 2.43463 14.2188 2.64735 14.1011 2.99132M13.9945 1.06276L7.04299 9.70269M13.9945 1.06276C14.1602 1.02896 14.2142 1.03337 14.3511 1.06269M13.9945 1.06276L14.3511 1.06269M14.1011 2.99132C14.1308 3.00361 14.0784 2.96862 14.1011 2.99132ZM14.1011 2.99132C14.1238 3.01401 14.6841 3.42114 14.0953 2.98364C14.1076 3.01329 14.1011 2.95922 14.1011 2.99132ZM14.1011 2.99132C14.1011 3.02341 10.9827 12.2336 10.6791 13.0743C9.48689 16.3751 9.97923 14.6696 6.95766 10.0561M6.95766 10.0561L8.74645 14.4655C8.74832 14.4718 8.768 14.4563 8.75239 14.4833C8.85239 14.773 9.83227 15.2658 10.1397 14.4993M6.95766 10.0561L6.93606 10.1656L6.9357 10.1644M6.95766 10.0561C6.93225 9.97238 6.98049 10.0614 6.92774 9.91985M6.95766 10.0561L7.11902 10.4539L6.9357 10.1644M6.95766 10.0561V9.86347L7.04299 9.70269M7.04299 9.70269C7.00032 9.78308 6.9465 9.83863 6.92774 9.91985M7.04299 9.70269L6.92774 9.91985M14.3511 1.06269C14.4881 1.09202 14.6083 1.12894 14.7074 1.22795M14.3511 1.06269L14.7074 1.22795M14.7074 1.22795C14.8065 1.32743 14.8746 1.45347 14.9036 1.59084C14.9325 1.72823 14.921 1.87104 14.8705 2.00204L10.1397 14.4993M14.7074 1.22795L10.1397 14.4993M10.1397 14.4993L9.56004 14.9083M10.1397 14.4993L10.1615 14.508C10.104 14.6514 9.99159 14.7546 9.86339 14.8408M10.1397 14.4993C10.084 14.6382 9.98757 14.7573 9.86339 14.8408M9.56004 14.9083C9.71448 14.9092 9.729 14.8408 9.86339 14.8408M9.56004 14.9083C9.70979 14.9092 9.74257 14.8835 9.86339 14.8408M9.56004 14.9083C9.26473 14.8948 8.87161 14.7569 8.77455 14.4757C8.77253 14.4703 8.77064 14.4646 8.7689 14.4588L8.768 14.4563L6.9357 10.1644M6.9357 10.1644C6.91182 10.085 6.90907 10.0007 6.92774 9.91985" stroke="#112211" stroke-width="0.046875"/>
</svg>
