<svg width="48" height="48" viewBox="0 0 48 48" fill="none" xmlns="http://www.w3.org/2000/svg">
<path d="M33 18.8571C33 18.1752 32.7291 17.5211 32.2468 17.0389C31.7646 16.5566 31.1106 16.2857 30.4286 16.2857H29.7857V15.6609C29.7857 15.315 29.5197 15.0181 29.1738 15.0008C29.0869 14.9966 29 15.0101 28.9185 15.0405C28.8369 15.0709 28.7624 15.1175 28.6994 15.1775C28.6364 15.2376 28.5862 15.3097 28.552 15.3897C28.5177 15.4697 28.5 15.5558 28.5 15.6429V16.2857H19.5V15.6609C19.5 15.315 19.234 15.0181 18.8881 15.0008C18.8012 14.9966 18.7143 15.0101 18.6327 15.0405C18.5512 15.0709 18.4767 15.1175 18.4137 15.1775C18.3507 15.2376 18.3005 15.3097 18.2662 15.3897C18.232 15.4697 18.2143 15.5558 18.2143 15.6429V16.2857H17.5714C16.8894 16.2857 16.2354 16.5566 15.7532 17.0389C15.2709 17.5211 15 18.1752 15 18.8571V19.3393C15 19.3819 15.0169 19.4228 15.0471 19.4529C15.0772 19.4831 15.1181 19.5 15.1607 19.5H32.8393C32.8819 19.5 32.9228 19.4831 32.9529 19.4529C32.9831 19.4228 33 19.3819 33 19.3393V18.8571ZM15 30.4286C15 31.1106 15.2709 31.7646 15.7532 32.2468C16.2354 32.7291 16.8894 33 17.5714 33H30.4286C31.1106 33 31.7646 32.7291 32.2468 32.2468C32.7291 31.7646 33 31.1106 33 30.4286V20.9063C33 20.8743 32.9873 20.8436 32.9647 20.821C32.9421 20.7984 32.9114 20.7857 32.8795 20.7857H15.1205C15.0886 20.7857 15.0579 20.7984 15.0353 20.821C15.0127 20.8436 15 20.8743 15 20.9063V30.4286ZM28.8214 22.0714C29.0121 22.0714 29.1986 22.128 29.3572 22.2339C29.5157 22.3399 29.6393 22.4905 29.7123 22.6667C29.7853 22.8429 29.8044 23.0368 29.7672 23.2238C29.73 23.4109 29.6381 23.5827 29.5033 23.7176C29.3684 23.8524 29.1966 23.9443 29.0096 23.9815C28.8225 24.0187 28.6286 23.9996 28.4524 23.9266C28.2762 23.8536 28.1256 23.73 28.0197 23.5714C27.9137 23.4129 27.8571 23.2264 27.8571 23.0357C27.8571 22.78 27.9587 22.5347 28.1396 22.3539C28.3204 22.173 28.5657 22.0714 28.8214 22.0714ZM28.8214 25.2857C29.0121 25.2857 29.1986 25.3423 29.3572 25.4482C29.5157 25.5542 29.6393 25.7048 29.7123 25.881C29.7853 26.0572 29.8044 26.2511 29.7672 26.4381C29.73 26.6252 29.6381 26.797 29.5033 26.9319C29.3684 27.0667 29.1966 27.1586 29.0096 27.1958C28.8225 27.233 28.6286 27.2139 28.4524 27.1409C28.2762 27.0679 28.1256 26.9443 28.0197 26.7857C27.9137 26.6272 27.8571 26.4407 27.8571 26.25C27.8571 25.9943 27.9587 25.749 28.1396 25.5681C28.3204 25.3873 28.5657 25.2857 28.8214 25.2857ZM25.6071 22.0714C25.7979 22.0714 25.9843 22.128 26.1429 22.2339C26.3014 22.3399 26.425 22.4905 26.498 22.6667C26.571 22.8429 26.5901 23.0368 26.5529 23.2238C26.5157 23.4109 26.4239 23.5827 26.289 23.7176C26.1541 23.8524 25.9823 23.9443 25.7953 23.9815C25.6082 24.0187 25.4143 23.9996 25.2381 23.9266C25.0619 23.8536 24.9113 23.73 24.8054 23.5714C24.6994 23.4129 24.6429 23.2264 24.6429 23.0357C24.6429 22.78 24.7445 22.5347 24.9253 22.3539C25.1061 22.173 25.3514 22.0714 25.6071 22.0714ZM25.6071 25.2857C25.7979 25.2857 25.9843 25.3423 26.1429 25.4482C26.3014 25.5542 26.425 25.7048 26.498 25.881C26.571 26.0572 26.5901 26.2511 26.5529 26.4381C26.5157 26.6252 26.4239 26.797 26.289 26.9319C26.1541 27.0667 25.9823 27.1586 25.7953 27.1958C25.6082 27.233 25.4143 27.2139 25.2381 27.1409C25.0619 27.0679 24.9113 26.9443 24.8054 26.7857C24.6994 26.6272 24.6429 26.4407 24.6429 26.25C24.6429 25.9943 24.7445 25.749 24.9253 25.5681C25.1061 25.3873 25.3514 25.2857 25.6071 25.2857ZM25.6071 28.5C25.7979 28.5 25.9843 28.5566 26.1429 28.6625C26.3014 28.7685 26.425 28.9191 26.498 29.0953C26.571 29.2715 26.5901 29.4654 26.5529 29.6524C26.5157 29.8395 26.4239 30.0113 26.289 30.1461C26.1541 30.281 25.9823 30.3728 25.7953 30.41C25.6082 30.4473 25.4143 30.4282 25.2381 30.3552C25.0619 30.2822 24.9113 30.1586 24.8054 30C24.6994 29.8414 24.6429 29.655 24.6429 29.4643C24.6429 29.2085 24.7445 28.9633 24.9253 28.7824C25.1061 28.6016 25.3514 28.5 25.6071 28.5ZM22.3929 25.2857C22.5836 25.2857 22.77 25.3423 22.9286 25.4482C23.0872 25.5542 23.2108 25.7048 23.2837 25.881C23.3567 26.0572 23.3758 26.2511 23.3386 26.4381C23.3014 26.6252 23.2096 26.797 23.0747 26.9319C22.9399 27.0667 22.768 27.1586 22.581 27.1958C22.3939 27.233 22.2 27.2139 22.0238 27.1409C21.8476 27.0679 21.697 26.9443 21.5911 26.7857C21.4851 26.6272 21.4286 26.4407 21.4286 26.25C21.4286 25.9943 21.5302 25.749 21.711 25.5681C21.8918 25.3873 22.1371 25.2857 22.3929 25.2857ZM22.3929 28.5C22.5836 28.5 22.77 28.5566 22.9286 28.6625C23.0872 28.7685 23.2108 28.9191 23.2837 29.0953C23.3567 29.2715 23.3758 29.4654 23.3386 29.6524C23.3014 29.8395 23.2096 30.0113 23.0747 30.1461C22.9399 30.281 22.768 30.3728 22.581 30.41C22.3939 30.4473 22.2 30.4282 22.0238 30.3552C21.8476 30.2822 21.697 30.1586 21.5911 30C21.4851 29.8414 21.4286 29.655 21.4286 29.4643C21.4286 29.2085 21.5302 28.9633 21.711 28.7824C21.8918 28.6016 22.1371 28.5 22.3929 28.5ZM19.1786 25.2857C19.3693 25.2857 19.5557 25.3423 19.7143 25.4482C19.8729 25.5542 19.9965 25.7048 20.0695 25.881C20.1424 26.0572 20.1615 26.2511 20.1243 26.4381C20.0871 26.6252 19.9953 26.797 19.8604 26.9319C19.7256 27.0667 19.5537 27.1586 19.3667 27.1958C19.1796 27.233 18.9858 27.2139 18.8096 27.1409C18.6334 27.0679 18.4828 26.9443 18.3768 26.7857C18.2708 26.6272 18.2143 26.4407 18.2143 26.25C18.2143 25.9943 18.3159 25.749 18.4967 25.5681C18.6776 25.3873 18.9228 25.2857 19.1786 25.2857ZM19.1786 28.5C19.3693 28.5 19.5557 28.5566 19.7143 28.6625C19.8729 28.7685 19.9965 28.9191 20.0695 29.0953C20.1424 29.2715 20.1615 29.4654 20.1243 29.6524C20.0871 29.8395 19.9953 30.0113 19.8604 30.1461C19.7256 30.281 19.5537 30.3728 19.3667 30.41C19.1796 30.4473 18.9858 30.4282 18.8096 30.3552C18.6334 30.2822 18.4828 30.1586 18.3768 30C18.2708 29.8414 18.2143 29.655 18.2143 29.4643C18.2143 29.2085 18.3159 28.9633 18.4967 28.7824C18.6776 28.6016 18.9228 28.5 19.1786 28.5Z" fill="#112211"/>
</svg>
