<svg width="48" height="48" viewBox="0 0 48 48" fill="none" xmlns="http://www.w3.org/2000/svg">
<g clip-path="url(#clip0_569_1062)">
<path d="M27.5928 15.0272C26.6806 14.0423 25.4065 13.5 24.0003 13.5C22.5865 13.5 21.3082 14.0391 20.4003 15.0178C19.4825 16.0073 19.0353 17.3522 19.1403 18.8044C19.3484 21.6694 21.5285 24 24.0003 24C26.472 24 28.6484 21.6698 28.8598 18.8053C28.9662 17.3662 28.5162 16.0242 27.5928 15.0272ZM32.2503 34.5H15.7503C15.5343 34.5028 15.3204 34.4574 15.1242 34.3672C14.928 34.2769 14.7543 34.1441 14.6159 33.9783C14.3112 33.6141 14.1884 33.1167 14.2793 32.6137C14.675 30.4191 15.9096 28.5755 17.8503 27.2812C19.5743 26.1323 21.7582 25.5 24.0003 25.5C26.2423 25.5 28.4262 26.1328 30.1503 27.2812C32.0909 28.575 33.3256 30.4186 33.7212 32.6133C33.8121 33.1162 33.6893 33.6136 33.3846 33.9778C33.2463 34.1437 33.0726 34.2766 32.8764 34.367C32.6802 34.4573 32.4663 34.5028 32.2503 34.5Z" fill="#112211"/>
</g>
<defs>
<clipPath id="clip0_569_1062">
<rect x="4" y="4" width="40" height="40" rx="20" fill="white"/>
</clipPath>
</defs>
</svg>
