<svg width="16" height="14" viewBox="0 0 16 14" fill="none" xmlns="http://www.w3.org/2000/svg">
<path d="M12.3131 14C12.2079 14.0004 12.1052 13.9676 12.0197 13.9063L8.00064 10.9925L3.98158 13.9063C3.89571 13.9685 3.79227 14.0019 3.6862 14.0015C3.58012 14.0011 3.47692 13.967 3.39151 13.9041C3.3061 13.8412 3.24291 13.7528 3.21107 13.6516C3.17923 13.5504 3.18039 13.4417 3.21439 13.3413L4.78189 8.69844L0.719389 5.9125C0.631393 5.85223 0.564978 5.76539 0.529849 5.66468C0.49472 5.56397 0.492718 5.45466 0.524134 5.35273C0.555551 5.2508 0.618741 5.16159 0.704471 5.09813C0.790201 5.03467 0.893978 5.00028 1.00064 5H6.01251L7.52501 0.345317C7.5576 0.244823 7.62117 0.157233 7.70662 0.0951107C7.79207 0.0329884 7.895 -0.000473022 8.00064 -0.000473022C8.10628 -0.000473022 8.20921 0.0329884 8.29466 0.0951107C8.38011 0.157233 8.44368 0.244823 8.47626 0.345317L9.98876 5.00157H15.0006C15.1074 5.00151 15.2114 5.03566 15.2974 5.099C15.3834 5.16233 15.4469 5.25154 15.4785 5.35355C15.5101 5.45556 15.5082 5.56501 15.4731 5.66587C15.438 5.76674 15.3716 5.85371 15.2835 5.91407L11.2194 8.69844L12.786 13.34C12.8113 13.4152 12.8185 13.4953 12.8068 13.5737C12.7951 13.6522 12.7649 13.7267 12.7187 13.7912C12.6725 13.8557 12.6116 13.9082 12.5411 13.9445C12.4706 13.9809 12.3925 13.9999 12.3131 14Z" fill="#FF8682"/>
</svg>
