<svg xmlns="http://www.w3.org/2000/svg">
  <symbol id="add-icon" width="16" height="16" viewBox="0 0 16 16">
    <path d="M8 3.5V12.5V3.5ZM12.5 8H3.5H12.5Z" fill="currentColor"/>
    <path d="M8 3.5V12.5M12.5 8H3.5" stroke="currentColor" stroke-width="1.5" stroke-linecap="round" stroke-linejoin="round"/>
  </symbol>
  <symbol id="airplane" width="24" height="24" viewBox="0 0 24 24">
    <path d="M8.74733 21.75H7.49952C7.37414 21.75 7.25077 21.7185 7.14069 21.6585C7.03062 21.5984 6.93735 21.5118 6.86941 21.4064C6.80147 21.301 6.76104 21.1803 6.7518 21.0552C6.74257 20.9302 6.76483 20.8048 6.81655 20.6906L9.83811 14.0227L5.30108 13.9219L3.64639 15.9267C3.33092 16.3233 3.07921 16.5 2.43702 16.5H1.59702C1.46402 16.5043 1.33195 16.4764 1.212 16.4188C1.09205 16.3612 0.987757 16.2755 0.907956 16.1691C0.796393 16.0186 0.686706 15.7636 0.793581 15.3998L1.72264 12.0717C1.72967 12.0469 1.73811 12.022 1.74749 11.9977C1.74795 11.9953 1.74795 11.9929 1.74749 11.9906C1.73781 11.9663 1.72951 11.9414 1.72264 11.9161L0.792643 8.56687C0.691862 8.21016 0.802018 7.96078 0.912643 7.81406C0.986929 7.71549 1.08331 7.63573 1.19403 7.58118C1.30475 7.52664 1.42672 7.49883 1.55014 7.5H2.43702C2.91655 7.5 3.38202 7.71516 3.65577 8.0625L5.27624 10.0336L9.83811 9.96609L6.81749 3.30984C6.7657 3.19568 6.74335 3.07036 6.75249 2.94533C6.76163 2.8203 6.80196 2.69956 6.8698 2.59414C6.93764 2.48872 7.03082 2.40198 7.14083 2.34186C7.25083 2.28175 7.37416 2.25016 7.49952 2.25H8.76092C8.9369 2.25354 9.10983 2.29667 9.26685 2.3762C9.42388 2.45572 9.56097 2.5696 9.66796 2.70937L15.5297 9.83438L18.2376 9.76312C18.4359 9.75234 18.9853 9.74859 19.1123 9.74859C21.7026 9.75 23.2495 10.5909 23.2495 12C23.2495 12.4434 23.0723 13.2656 21.8869 13.7887C21.187 14.0981 20.2533 14.2547 19.1114 14.2547C18.9858 14.2547 18.4378 14.2509 18.2367 14.2402L15.5292 14.168L9.65296 21.293C9.54588 21.4321 9.40891 21.5454 9.25216 21.6246C9.0954 21.7037 8.92288 21.7465 8.74733 21.75Z" fill="currentColor"/>
  </symbol>
  <symbol id="bed" width="24" height="24" viewBox="0 0 24 24">
    <path d="M20.25 10.8141C19.7772 10.6065 19.2664 10.4996 18.75 10.5H5.25C4.73368 10.4995 4.22288 10.6063 3.75 10.8136C3.08166 11.1059 2.51294 11.5865 2.11336 12.1968C1.71377 12.8071 1.50064 13.5205 1.5 14.25V19.5C1.5 19.6989 1.57902 19.8897 1.71967 20.0303C1.86032 20.171 2.05109 20.25 2.25 20.25C2.44891 20.25 2.63968 20.171 2.78033 20.0303C2.92098 19.8897 3 19.6989 3 19.5V19.125C3.00122 19.0259 3.04112 18.9312 3.11118 18.8612C3.18124 18.7911 3.27592 18.7512 3.375 18.75H20.625C20.7241 18.7512 20.8188 18.7911 20.8888 18.8612C20.9589 18.9312 20.9988 19.0259 21 19.125V19.5C21 19.6989 21.079 19.8897 21.2197 20.0303C21.3603 20.171 21.5511 20.25 21.75 20.25C21.9489 20.25 22.1397 20.171 22.2803 20.0303C22.421 19.8897 22.5 19.6989 22.5 19.5V14.25C22.4993 13.5206 22.2861 12.8073 21.8865 12.1971C21.4869 11.5869 20.9183 11.1063 20.25 10.8141ZM17.625 3.75H6.375C5.67881 3.75 5.01113 4.02656 4.51884 4.51884C4.02656 5.01113 3.75 5.67881 3.75 6.375V9.75C3.75002 9.77906 3.75679 9.80771 3.76979 9.8337C3.78278 9.85969 3.80163 9.8823 3.82486 9.89976C3.84809 9.91721 3.87505 9.92903 3.90363 9.93428C3.93221 9.93953 3.96162 9.93806 3.98953 9.93C4.39896 9.81025 4.82341 9.74964 5.25 9.75H5.44828C5.49456 9.75029 5.53932 9.73346 5.57393 9.70274C5.60855 9.67202 5.63058 9.62958 5.63578 9.58359C5.67669 9.21712 5.85115 8.87856 6.12586 8.63256C6.40056 8.38656 6.75625 8.25037 7.125 8.25H9.75C10.119 8.25003 10.475 8.38606 10.75 8.63209C11.025 8.87812 11.1997 9.21688 11.2406 9.58359C11.2458 9.62958 11.2679 9.67202 11.3025 9.70274C11.3371 9.73346 11.3818 9.75029 11.4281 9.75H12.5747C12.621 9.75029 12.6657 9.73346 12.7003 9.70274C12.735 9.67202 12.757 9.62958 12.7622 9.58359C12.8031 9.21736 12.9773 8.87899 13.2517 8.63303C13.5261 8.38706 13.8815 8.25072 14.25 8.25H16.875C17.244 8.25003 17.6 8.38606 17.875 8.63209C18.15 8.87812 18.3247 9.21688 18.3656 9.58359C18.3708 9.62958 18.3929 9.67202 18.4275 9.70274C18.4621 9.73346 18.5068 9.75029 18.5531 9.75H18.75C19.1766 9.74979 19.6011 9.81057 20.0105 9.93047C20.0384 9.93854 20.0679 9.94 20.0965 9.93473C20.1251 9.92945 20.1521 9.91759 20.1753 9.90009C20.1986 9.88258 20.2174 9.8599 20.2304 9.83385C20.2433 9.8078 20.2501 9.7791 20.25 9.75V6.375C20.25 5.67881 19.9734 5.01113 19.4812 4.51884C18.9889 4.02656 18.3212 3.75 17.625 3.75Z" fill="currentColor"/>
  </symbol>
  <symbol id="building-icon" width="16" height="16" viewBox="0 0 16 16">
    <mask id="path-1-inside-1_464_3613" fill="white">
      <path d="M13.5 5.5H10V2C10 1.60218 9.84196 1.22064 9.56066 0.93934C9.27936 0.658035 8.89782 0.5 8.5 0.5H2.5C2.10218 0.5 1.72064 0.658035 1.43934 0.93934C1.15804 1.22064 1 1.60218 1 2V15C1 15.1326 1.05268 15.2598 1.14645 15.3536C1.24021 15.4473 1.36739 15.5 1.5 15.5H4.75C4.8163 15.5 4.87989 15.4737 4.92678 15.4268C4.97366 15.3799 5 15.3163 5 15.25V13.0141C5 12.745 5.20687 12.5141 5.47594 12.5006C5.54354 12.4974 5.6111 12.5079 5.67453 12.5315C5.73796 12.5551 5.79593 12.5914 5.84492 12.6381C5.89392 12.6848 5.93293 12.7409 5.95959 12.8031C5.98625 12.8653 5.99999 12.9323 6 13V15.25C6 15.3163 6.02634 15.3799 6.07322 15.4268C6.12011 15.4737 6.1837 15.5 6.25 15.5H14.5C14.6326 15.5 14.7598 15.4473 14.8536 15.3536C14.9473 15.2598 15 15.1326 15 15V7C15 6.60218 14.842 6.22064 14.5607 5.93934C14.2794 5.65804 13.8978 5.5 13.5 5.5V5.5ZM3.065 13.4959C2.96145 13.5095 2.85625 13.4903 2.76418 13.441C2.67211 13.3917 2.59778 13.3148 2.55163 13.2211C2.50548 13.1274 2.48982 13.0216 2.50686 12.9186C2.52389 12.8156 2.57276 12.7205 2.64661 12.6466C2.72045 12.5728 2.81557 12.5239 2.91861 12.5069C3.02164 12.4898 3.12743 12.5055 3.22111 12.5516C3.3148 12.5978 3.39168 12.6721 3.44097 12.7642C3.49026 12.8563 3.50948 12.9614 3.49594 13.065C3.48165 13.1743 3.43165 13.2758 3.35371 13.3537C3.27578 13.4316 3.17428 13.4816 3.065 13.4959V13.4959ZM3.065 10.9959C2.96145 11.0095 2.85625 10.9903 2.76418 10.941C2.67211 10.8917 2.59778 10.8148 2.55163 10.7211C2.50548 10.6274 2.48982 10.5216 2.50686 10.4186C2.52389 10.3156 2.57276 10.2205 2.64661 10.1466C2.72045 10.0728 2.81557 10.0239 2.91861 10.0069C3.02164 9.98982 3.12743 10.0055 3.22111 10.0516C3.3148 10.0978 3.39168 10.1721 3.44097 10.2642C3.49026 10.3563 3.50948 10.4614 3.49594 10.565C3.48165 10.6743 3.43165 10.7758 3.35371 10.8537C3.27578 10.9316 3.17428 10.9816 3.065 10.9959V10.9959ZM3.065 8.49594C2.96145 8.50948 2.85625 8.49026 2.76418 8.44097C2.67211 8.39168 2.59778 8.3148 2.55163 8.22111C2.50548 8.12743 2.48982 8.02164 2.50686 7.91861C2.52389 7.81557 2.57276 7.72045 2.64661 7.64661C2.72045 7.57276 2.81557 7.52389 2.91861 7.50686C3.02164 7.48982 3.12743 7.50548 3.22111 7.55163C3.3148 7.59778 3.39168 7.67211 3.44097 7.76418C3.49026 7.85625 3.50948 7.96145 3.49594 8.065C3.48165 8.17428 3.43165 8.27578 3.35371 8.35371C3.27578 8.43165 3.17428 8.48164 3.065 8.49594V8.49594ZM3.065 5.99594C2.96145 6.00948 2.85625 5.99026 2.76418 5.94097C2.67211 5.89168 2.59778 5.8148 2.55163 5.72111C2.50548 5.62743 2.48982 5.52164 2.50686 5.41861C2.52389 5.31557 2.57276 5.22045 2.64661 5.14661C2.72045 5.07276 2.81557 5.02389 2.91861 5.00686C3.02164 4.98982 3.12743 5.00548 3.22111 5.05163C3.3148 5.09778 3.39168 5.17211 3.44097 5.26418C3.49026 5.35625 3.50948 5.46145 3.49594 5.565C3.48165 5.67428 3.43165 5.77578 3.35371 5.85371C3.27578 5.93165 3.17428 5.98164 3.065 5.99594V5.99594ZM3.065 3.49594C2.96145 3.50948 2.85625 3.49026 2.76418 3.44097C2.67211 3.39168 2.59778 3.3148 2.55163 3.22111C2.50548 3.12743 2.48982 3.02164 2.50686 2.91861C2.52389 2.81557 2.57276 2.72045 2.64661 2.64661C2.72045 2.57276 2.81557 2.52389 2.91861 2.50686C3.02164 2.48982 3.12743 2.50548 3.22111 2.55163C3.3148 2.59778 3.39168 2.67211 3.44097 2.76418C3.49026 2.85625 3.50948 2.96145 3.49594 3.065C3.48165 3.17428 3.43165 3.27578 3.35371 3.35371C3.27578 3.43165 3.17428 3.48165 3.065 3.49594V3.49594ZM5.565 10.9959C5.46145 11.0095 5.35625 10.9903 5.26418 10.941C5.17211 10.8917 5.09778 10.8148 5.05163 10.7211C5.00548 10.6274 4.98982 10.5216 5.00686 10.4186C5.02389 10.3156 5.07276 10.2205 5.14661 10.1466C5.22045 10.0728 5.31557 10.0239 5.41861 10.0069C5.52164 9.98982 5.62743 10.0055 5.72111 10.0516C5.8148 10.0978 5.89168 10.1721 5.94097 10.2642C5.99026 10.3563 6.00948 10.4614 5.99594 10.565C5.98164 10.6743 5.93165 10.7758 5.85371 10.8537C5.77578 10.9316 5.67428 10.9816 5.565 10.9959V10.9959ZM5.565 8.49594C5.46145 8.50948 5.35625 8.49026 5.26418 8.44097C5.17211 8.39168 5.09778 8.3148 5.05163 8.22111C5.00548 8.12743 4.98982 8.02164 5.00686 7.91861C5.02389 7.81557 5.07276 7.72045 5.14661 7.64661C5.22045 7.57276 5.31557 7.52389 5.41861 7.50686C5.52164 7.48982 5.62743 7.50548 5.72111 7.55163C5.8148 7.59778 5.89168 7.67211 5.94097 7.76418C5.99026 7.85625 6.00948 7.96145 5.99594 8.065C5.98164 8.17428 5.93165 8.27578 5.85371 8.35371C5.77578 8.43165 5.67428 8.48164 5.565 8.49594V8.49594ZM5.565 5.99594C5.46145 6.00948 5.35625 5.99026 5.26418 5.94097C5.17211 5.89168 5.09778 5.8148 5.05163 5.72111C5.00548 5.62743 4.98982 5.52164 5.00686 5.41861C5.02389 5.31557 5.07276 5.22045 5.14661 5.14661C5.22045 5.07276 5.31557 5.02389 5.41861 5.00686C5.52164 4.98982 5.62743 5.00548 5.72111 5.05163C5.8148 5.09778 5.89168 5.17211 5.94097 5.26418C5.99026 5.35625 6.00948 5.46145 5.99594 5.565C5.98164 5.67428 5.93165 5.77578 5.85371 5.85371C5.77578 5.93165 5.67428 5.98164 5.565 5.99594V5.99594ZM5.565 3.49594C5.46145 3.50948 5.35625 3.49026 5.26418 3.44097C5.17211 3.39168 5.09778 3.3148 5.05163 3.22111C5.00548 3.12743 4.98982 3.02164 5.00686 2.91861C5.02389 2.81557 5.07276 2.72045 5.14661 2.64661C5.22045 2.57276 5.31557 2.52389 5.41861 2.50686C5.52164 2.48982 5.62743 2.50548 5.72111 2.55163C5.8148 2.59778 5.89168 2.67211 5.94097 2.76418C5.99026 2.85625 6.00948 2.96145 5.99594 3.065C5.98164 3.17428 5.93165 3.27578 5.85371 3.35371C5.77578 3.43165 5.67428 3.48165 5.565 3.49594V3.49594ZM8.065 13.4959C7.96145 13.5095 7.85625 13.4903 7.76418 13.441C7.67211 13.3917 7.59778 13.3148 7.55163 13.2211C7.50548 13.1274 7.48982 13.0216 7.50686 12.9186C7.52389 12.8156 7.57276 12.7205 7.64661 12.6466C7.72045 12.5728 7.81557 12.5239 7.91861 12.5069C8.02164 12.4898 8.12743 12.5055 8.22111 12.5516C8.3148 12.5978 8.39168 12.6721 8.44097 12.7642C8.49026 12.8563 8.50948 12.9614 8.49594 13.065C8.48164 13.1743 8.43165 13.2758 8.35371 13.3537C8.27578 13.4316 8.17428 13.4816 8.065 13.4959V13.4959ZM8.065 10.9959C7.96145 11.0095 7.85625 10.9903 7.76418 10.941C7.67211 10.8917 7.59778 10.8148 7.55163 10.7211C7.50548 10.6274 7.48982 10.5216 7.50686 10.4186C7.52389 10.3156 7.57276 10.2205 7.64661 10.1466C7.72045 10.0728 7.81557 10.0239 7.91861 10.0069C8.02164 9.98982 8.12743 10.0055 8.22111 10.0516C8.3148 10.0978 8.39168 10.1721 8.44097 10.2642C8.49026 10.3563 8.50948 10.4614 8.49594 10.565C8.48164 10.6743 8.43165 10.7758 8.35371 10.8537C8.27578 10.9316 8.17428 10.9816 8.065 10.9959V10.9959ZM8.065 8.49594C7.96145 8.50948 7.85625 8.49026 7.76418 8.44097C7.67211 8.39168 7.59778 8.3148 7.55163 8.22111C7.50548 8.12743 7.48982 8.02164 7.50686 7.91861C7.52389 7.81557 7.57276 7.72045 7.64661 7.64661C7.72045 7.57276 7.81557 7.52389 7.91861 7.50686C8.02164 7.48982 8.12743 7.50548 8.22111 7.55163C8.3148 7.59778 8.39168 7.67211 8.44097 7.76418C8.49026 7.85625 8.50948 7.96145 8.49594 8.065C8.48164 8.17428 8.43165 8.27578 8.35371 8.35371C8.27578 8.43165 8.17428 8.48164 8.065 8.49594V8.49594ZM8.065 5.99594C7.96145 6.00948 7.85625 5.99026 7.76418 5.94097C7.67211 5.89168 7.59778 5.8148 7.55163 5.72111C7.50548 5.62743 7.48982 5.52164 7.50686 5.41861C7.52389 5.31557 7.57276 5.22045 7.64661 5.14661C7.72045 5.07276 7.81557 5.02389 7.91861 5.00686C8.02164 4.98982 8.12743 5.00548 8.22111 5.05163C8.3148 5.09778 8.39168 5.17211 8.44097 5.26418C8.49026 5.35625 8.50948 5.46145 8.49594 5.565C8.48164 5.67428 8.43165 5.77578 8.35371 5.85371C8.27578 5.93165 8.17428 5.98164 8.065 5.99594V5.99594ZM8.065 3.49594C7.96145 3.50948 7.85625 3.49026 7.76418 3.44097C7.67211 3.39168 7.59778 3.3148 7.55163 3.22111C7.50548 3.12743 7.48982 3.02164 7.50686 2.91861C7.52389 2.81557 7.57276 2.72045 7.64661 2.64661C7.72045 2.57276 7.81557 2.52389 7.91861 2.50686C8.02164 2.48982 8.12743 2.50548 8.22111 2.55163C8.3148 2.59778 8.39168 2.67211 8.44097 2.76418C8.49026 2.85625 8.50948 2.96145 8.49594 3.065C8.48164 3.17428 8.43165 3.27578 8.35371 3.35371C8.27578 3.43165 8.17428 3.48165 8.065 3.49594V3.49594ZM13.875 14.5H10V6.5H13.5C13.6326 6.5 13.7598 6.55268 13.8536 6.64645C13.9473 6.74021 14 6.86739 14 7V14.375C14 14.4082 13.9868 14.4399 13.9634 14.4634C13.9399 14.4868 13.9082 14.5 13.875 14.5Z"/>
    </mask>
    <path d="M13.5 5.5H10V2C10 1.60218 9.84196 1.22064 9.56066 0.93934C9.27936 0.658035 8.89782 0.5 8.5 0.5H2.5C2.10218 0.5 1.72064 0.658035 1.43934 0.93934C1.15804 1.22064 1 1.60218 1 2V15C1 15.1326 1.05268 15.2598 1.14645 15.3536C1.24021 15.4473 1.36739 15.5 1.5 15.5H4.75C4.8163 15.5 4.87989 15.4737 4.92678 15.4268C4.97366 15.3799 5 15.3163 5 15.25V13.0141C5 12.745 5.20687 12.5141 5.47594 12.5006C5.54354 12.4974 5.6111 12.5079 5.67453 12.5315C5.73796 12.5551 5.79593 12.5914 5.84492 12.6381C5.89392 12.6848 5.93293 12.7409 5.95959 12.8031C5.98625 12.8653 5.99999 12.9323 6 13V15.25C6 15.3163 6.02634 15.3799 6.07322 15.4268C6.12011 15.4737 6.1837 15.5 6.25 15.5H14.5C14.6326 15.5 14.7598 15.4473 14.8536 15.3536C14.9473 15.2598 15 15.1326 15 15V7C15 6.60218 14.842 6.22064 14.5607 5.93934C14.2794 5.65804 13.8978 5.5 13.5 5.5V5.5ZM3.065 13.4959C2.96145 13.5095 2.85625 13.4903 2.76418 13.441C2.67211 13.3917 2.59778 13.3148 2.55163 13.2211C2.50548 13.1274 2.48982 13.0216 2.50686 12.9186C2.52389 12.8156 2.57276 12.7205 2.64661 12.6466C2.72045 12.5728 2.81557 12.5239 2.91861 12.5069C3.02164 12.4898 3.12743 12.5055 3.22111 12.5516C3.3148 12.5978 3.39168 12.6721 3.44097 12.7642C3.49026 12.8563 3.50948 12.9614 3.49594 13.065C3.48165 13.1743 3.43165 13.2758 3.35371 13.3537C3.27578 13.4316 3.17428 13.4816 3.065 13.4959V13.4959ZM3.065 10.9959C2.96145 11.0095 2.85625 10.9903 2.76418 10.941C2.67211 10.8917 2.59778 10.8148 2.55163 10.7211C2.50548 10.6274 2.48982 10.5216 2.50686 10.4186C2.52389 10.3156 2.57276 10.2205 2.64661 10.1466C2.72045 10.0728 2.81557 10.0239 2.91861 10.0069C3.02164 9.98982 3.12743 10.0055 3.22111 10.0516C3.3148 10.0978 3.39168 10.1721 3.44097 10.2642C3.49026 10.3563 3.50948 10.4614 3.49594 10.565C3.48165 10.6743 3.43165 10.7758 3.35371 10.8537C3.27578 10.9316 3.17428 10.9816 3.065 10.9959V10.9959ZM3.065 8.49594C2.96145 8.50948 2.85625 8.49026 2.76418 8.44097C2.67211 8.39168 2.59778 8.3148 2.55163 8.22111C2.50548 8.12743 2.48982 8.02164 2.50686 7.91861C2.52389 7.81557 2.57276 7.72045 2.64661 7.64661C2.72045 7.57276 2.81557 7.52389 2.91861 7.50686C3.02164 7.48982 3.12743 7.50548 3.22111 7.55163C3.3148 7.59778 3.39168 7.67211 3.44097 7.76418C3.49026 7.85625 3.50948 7.96145 3.49594 8.065C3.48165 8.17428 3.43165 8.27578 3.35371 8.35371C3.27578 8.43165 3.17428 8.48164 3.065 8.49594V8.49594ZM3.065 5.99594C2.96145 6.00948 2.85625 5.99026 2.76418 5.94097C2.67211 5.89168 2.59778 5.8148 2.55163 5.72111C2.50548 5.62743 2.48982 5.52164 2.50686 5.41861C2.52389 5.31557 2.57276 5.22045 2.64661 5.14661C2.72045 5.07276 2.81557 5.02389 2.91861 5.00686C3.02164 4.98982 3.12743 5.00548 3.22111 5.05163C3.3148 5.09778 3.39168 5.17211 3.44097 5.26418C3.49026 5.35625 3.50948 5.46145 3.49594 5.565C3.48165 5.67428 3.43165 5.77578 3.35371 5.85371C3.27578 5.93165 3.17428 5.98164 3.065 5.99594V5.99594ZM3.065 3.49594C2.96145 3.50948 2.85625 3.49026 2.76418 3.44097C2.67211 3.39168 2.59778 3.3148 2.55163 3.22111C2.50548 3.12743 2.48982 3.02164 2.50686 2.91861C2.52389 2.81557 2.57276 2.72045 2.64661 2.64661C2.72045 2.57276 2.81557 2.52389 2.91861 2.50686C3.02164 2.48982 3.12743 2.50548 3.22111 2.55163C3.3148 2.59778 3.39168 2.67211 3.44097 2.76418C3.49026 2.85625 3.50948 2.96145 3.49594 3.065C3.48165 3.17428 3.43165 3.27578 3.35371 3.35371C3.27578 3.43165 3.17428 3.48165 3.065 3.49594V3.49594ZM5.565 10.9959C5.46145 11.0095 5.35625 10.9903 5.26418 10.941C5.17211 10.8917 5.09778 10.8148 5.05163 10.7211C5.00548 10.6274 4.98982 10.5216 5.00686 10.4186C5.02389 10.3156 5.07276 10.2205 5.14661 10.1466C5.22045 10.0728 5.31557 10.0239 5.41861 10.0069C5.52164 9.98982 5.62743 10.0055 5.72111 10.0516C5.8148 10.0978 5.89168 10.1721 5.94097 10.2642C5.99026 10.3563 6.00948 10.4614 5.99594 10.565C5.98164 10.6743 5.93165 10.7758 5.85371 10.8537C5.77578 10.9316 5.67428 10.9816 5.565 10.9959V10.9959ZM5.565 8.49594C5.46145 8.50948 5.35625 8.49026 5.26418 8.44097C5.17211 8.39168 5.09778 8.3148 5.05163 8.22111C5.00548 8.12743 4.98982 8.02164 5.00686 7.91861C5.02389 7.81557 5.07276 7.72045 5.14661 7.64661C5.22045 7.57276 5.31557 7.52389 5.41861 7.50686C5.52164 7.48982 5.62743 7.50548 5.72111 7.55163C5.8148 7.59778 5.89168 7.67211 5.94097 7.76418C5.99026 7.85625 6.00948 7.96145 5.99594 8.065C5.98164 8.17428 5.93165 8.27578 5.85371 8.35371C5.77578 8.43165 5.67428 8.48164 5.565 8.49594V8.49594ZM5.565 5.99594C5.46145 6.00948 5.35625 5.99026 5.26418 5.94097C5.17211 5.89168 5.09778 5.8148 5.05163 5.72111C5.00548 5.62743 4.98982 5.52164 5.00686 5.41861C5.02389 5.31557 5.07276 5.22045 5.14661 5.14661C5.22045 5.07276 5.31557 5.02389 5.41861 5.00686C5.52164 4.98982 5.62743 5.00548 5.72111 5.05163C5.8148 5.09778 5.89168 5.17211 5.94097 5.26418C5.99026 5.35625 6.00948 5.46145 5.99594 5.565C5.98164 5.67428 5.93165 5.77578 5.85371 5.85371C5.77578 5.93165 5.67428 5.98164 5.565 5.99594V5.99594ZM5.565 3.49594C5.46145 3.50948 5.35625 3.49026 5.26418 3.44097C5.17211 3.39168 5.09778 3.3148 5.05163 3.22111C5.00548 3.12743 4.98982 3.02164 5.00686 2.91861C5.02389 2.81557 5.07276 2.72045 5.14661 2.64661C5.22045 2.57276 5.31557 2.52389 5.41861 2.50686C5.52164 2.48982 5.62743 2.50548 5.72111 2.55163C5.8148 2.59778 5.89168 2.67211 5.94097 2.76418C5.99026 2.85625 6.00948 2.96145 5.99594 3.065C5.98164 3.17428 5.93165 3.27578 5.85371 3.35371C5.77578 3.43165 5.67428 3.48165 5.565 3.49594V3.49594ZM8.065 13.4959C7.96145 13.5095 7.85625 13.4903 7.76418 13.441C7.67211 13.3917 7.59778 13.3148 7.55163 13.2211C7.50548 13.1274 7.48982 13.0216 7.50686 12.9186C7.52389 12.8156 7.57276 12.7205 7.64661 12.6466C7.72045 12.5728 7.81557 12.5239 7.91861 12.5069C8.02164 12.4898 8.12743 12.5055 8.22111 12.5516C8.3148 12.5978 8.39168 12.6721 8.44097 12.7642C8.49026 12.8563 8.50948 12.9614 8.49594 13.065C8.48164 13.1743 8.43165 13.2758 8.35371 13.3537C8.27578 13.4316 8.17428 13.4816 8.065 13.4959V13.4959ZM8.065 10.9959C7.96145 11.0095 7.85625 10.9903 7.76418 10.941C7.67211 10.8917 7.59778 10.8148 7.55163 10.7211C7.50548 10.6274 7.48982 10.5216 7.50686 10.4186C7.52389 10.3156 7.57276 10.2205 7.64661 10.1466C7.72045 10.0728 7.81557 10.0239 7.91861 10.0069C8.02164 9.98982 8.12743 10.0055 8.22111 10.0516C8.3148 10.0978 8.39168 10.1721 8.44097 10.2642C8.49026 10.3563 8.50948 10.4614 8.49594 10.565C8.48164 10.6743 8.43165 10.7758 8.35371 10.8537C8.27578 10.9316 8.17428 10.9816 8.065 10.9959V10.9959ZM8.065 8.49594C7.96145 8.50948 7.85625 8.49026 7.76418 8.44097C7.67211 8.39168 7.59778 8.3148 7.55163 8.22111C7.50548 8.12743 7.48982 8.02164 7.50686 7.91861C7.52389 7.81557 7.57276 7.72045 7.64661 7.64661C7.72045 7.57276 7.81557 7.52389 7.91861 7.50686C8.02164 7.48982 8.12743 7.50548 8.22111 7.55163C8.3148 7.59778 8.39168 7.67211 8.44097 7.76418C8.49026 7.85625 8.50948 7.96145 8.49594 8.065C8.48164 8.17428 8.43165 8.27578 8.35371 8.35371C8.27578 8.43165 8.17428 8.48164 8.065 8.49594V8.49594ZM8.065 5.99594C7.96145 6.00948 7.85625 5.99026 7.76418 5.94097C7.67211 5.89168 7.59778 5.8148 7.55163 5.72111C7.50548 5.62743 7.48982 5.52164 7.50686 5.41861C7.52389 5.31557 7.57276 5.22045 7.64661 5.14661C7.72045 5.07276 7.81557 5.02389 7.91861 5.00686C8.02164 4.98982 8.12743 5.00548 8.22111 5.05163C8.3148 5.09778 8.39168 5.17211 8.44097 5.26418C8.49026 5.35625 8.50948 5.46145 8.49594 5.565C8.48164 5.67428 8.43165 5.77578 8.35371 5.85371C8.27578 5.93165 8.17428 5.98164 8.065 5.99594V5.99594ZM8.065 3.49594C7.96145 3.50948 7.85625 3.49026 7.76418 3.44097C7.67211 3.39168 7.59778 3.3148 7.55163 3.22111C7.50548 3.12743 7.48982 3.02164 7.50686 2.91861C7.52389 2.81557 7.57276 2.72045 7.64661 2.64661C7.72045 2.57276 7.81557 2.52389 7.91861 2.50686C8.02164 2.48982 8.12743 2.50548 8.22111 2.55163C8.3148 2.59778 8.39168 2.67211 8.44097 2.76418C8.49026 2.85625 8.50948 2.96145 8.49594 3.065C8.48164 3.17428 8.43165 3.27578 8.35371 3.35371C8.27578 3.43165 8.17428 3.48165 8.065 3.49594V3.49594ZM13.875 14.5H10V6.5H13.5C13.6326 6.5 13.7598 6.55268 13.8536 6.64645C13.9473 6.74021 14 6.86739 14 7V14.375C14 14.4082 13.9868 14.4399 13.9634 14.4634C13.9399 14.4868 13.9082 14.5 13.875 14.5Z" fill="black" stroke="#112211" stroke-width="0.09375" mask="url(#path-1-inside-1_464_3613)"/>
    <path d="M12.5 12.5C12.4011 12.5 12.3044 12.5293 12.2222 12.5843C12.14 12.6392 12.0759 12.7173 12.0381 12.8087C12.0002 12.9 11.9903 13.0006 12.0096 13.0975C12.0289 13.1945 12.0765 13.2836 12.1464 13.3536C12.2164 13.4235 12.3055 13.4711 12.4025 13.4904C12.4994 13.5097 12.6 13.4998 12.6913 13.4619C12.7827 13.4241 12.8608 13.36 12.9157 13.2778C12.9707 13.1956 13 13.0989 13 13C13 12.8674 12.9473 12.7402 12.8536 12.6464C12.7598 12.5527 12.6326 12.5 12.5 12.5ZM12.5 10C12.4011 10 12.3044 10.0293 12.2222 10.0843C12.14 10.1392 12.0759 10.2173 12.0381 10.3087C12.0002 10.4 11.9903 10.5006 12.0096 10.5975C12.0289 10.6945 12.0765 10.7836 12.1464 10.8536C12.2164 10.9235 12.3055 10.9711 12.4025 10.9904C12.4994 11.0097 12.6 10.9998 12.6913 10.9619C12.7827 10.9241 12.8608 10.86 12.9157 10.7778C12.9707 10.6956 13 10.5989 13 10.5C13 10.3674 12.9473 10.2402 12.8536 10.1464C12.7598 10.0527 12.6326 10 12.5 10ZM12.5 7.5C12.4011 7.5 12.3044 7.52932 12.2222 7.58427C12.14 7.63921 12.0759 7.7173 12.0381 7.80866C12.0002 7.90002 11.9903 8.00056 12.0096 8.09755C12.0289 8.19454 12.0765 8.28363 12.1464 8.35355C12.2164 8.42348 12.3055 8.4711 12.4025 8.49039C12.4994 8.50969 12.6 8.49978 12.6913 8.46194C12.7827 8.4241 12.8608 8.36001 12.9157 8.27779C12.9707 8.19556 13 8.09889 13 8C13 7.86739 12.9473 7.74021 12.8536 7.64645C12.7598 7.55268 12.6326 7.5 12.5 7.5ZM10.5 12.5C10.4011 12.5 10.3044 12.5293 10.2222 12.5843C10.14 12.6392 10.0759 12.7173 10.0381 12.8087C10.0002 12.9 9.99031 13.0006 10.0096 13.0975C10.0289 13.1945 10.0765 13.2836 10.1464 13.3536C10.2164 13.4235 10.3055 13.4711 10.4025 13.4904C10.4994 13.5097 10.6 13.4998 10.6913 13.4619C10.7827 13.4241 10.8608 13.36 10.9157 13.2778C10.9707 13.1956 11 13.0989 11 13C11 12.8674 10.9473 12.7402 10.8536 12.6464C10.7598 12.5527 10.6326 12.5 10.5 12.5ZM10.5 10C10.4011 10 10.3044 10.0293 10.2222 10.0843C10.14 10.1392 10.0759 10.2173 10.0381 10.3087C10.0002 10.4 9.99031 10.5006 10.0096 10.5975C10.0289 10.6945 10.0765 10.7836 10.1464 10.8536C10.2164 10.9235 10.3055 10.9711 10.4025 10.9904C10.4994 11.0097 10.6 10.9998 10.6913 10.9619C10.7827 10.9241 10.8608 10.86 10.9157 10.7778C10.9707 10.6956 11 10.5989 11 10.5C11 10.3674 10.9473 10.2402 10.8536 10.1464C10.7598 10.0527 10.6326 10 10.5 10ZM10.5 7.5C10.4011 7.5 10.3044 7.52932 10.2222 7.58427C10.14 7.63921 10.0759 7.7173 10.0381 7.80866C10.0002 7.90002 9.99031 8.00056 10.0096 8.09755C10.0289 8.19454 10.0765 8.28363 10.1464 8.35355C10.2164 8.42348 10.3055 8.4711 10.4025 8.49039C10.4994 8.50969 10.6 8.49978 10.6913 8.46194C10.7827 8.4241 10.8608 8.36001 10.9157 8.27779C10.9707 8.19556 11 8.09889 11 8C11 7.86739 10.9473 7.74021 10.8536 7.64645C10.7598 7.55268 10.6326 7.5 10.5 7.5Z" fill="black"/>
  </symbol>
  <symbol id="facebook-icon" width="20" height="21" viewBox="0 0 20 21">
    <path fill-rule="evenodd" clip-rule="evenodd" d="M1 10.0503C1 14.5248 4.24975 18.2455 8.5 19V12.4998H6.25V10H8.5V7.99975C8.5 5.74975 9.94975 4.50025 12.0002 4.50025C12.6497 4.50025 13.3503 4.6 13.9998 4.69975V7H12.85C11.7498 7 11.5 7.54975 11.5 8.25025V10H13.9L13.5002 12.4998H11.5V19C15.7502 18.2455 19 14.5255 19 10.0503C19 5.0725 14.95 1 10 1C5.05 1 1 5.0725 1 10.0503Z" fill="currentColor"/>
  </symbol>
  <symbol id="heart-black-24-icon" width="24" height="25" viewBox="0 0 24 25">
    <path d="M11.9995 21.5C11.6985 21.4996 11.4045 21.4086 11.1558 21.2389C7.47189 18.7381 5.87673 17.0234 4.99689 15.9514C3.12189 13.6663 2.22423 11.3202 2.24954 8.77953C2.27908 5.86813 4.61486 3.5 7.45642 3.5C9.52267 3.5 10.9538 4.66391 11.7872 5.63328C11.8136 5.66368 11.8462 5.68805 11.8829 5.70476C11.9195 5.72146 11.9593 5.73011 11.9995 5.73011C12.0398 5.73011 12.0796 5.72146 12.1162 5.70476C12.1529 5.68805 12.1855 5.66368 12.2119 5.63328C13.0453 4.66297 14.4764 3.5 16.5427 3.5C19.3842 3.5 21.72 5.86812 21.7495 8.78C21.7749 11.3211 20.8763 13.6672 19.0022 15.9519C18.1224 17.0239 16.5272 18.7386 12.8433 21.2394C12.5946 21.4089 12.3006 21.4998 11.9995 21.5Z" fill="currentColor"/>
  </symbol>
  <symbol id="heart-black-icon" width="20" height="20" viewBox="0 0 20 20">
    <path d="M13.7863 3.125C11.2504 3.125 10.0004 5.625 10.0004 5.625C10.0004 5.625 8.7504 3.125 6.21446 3.125C4.15352 3.125 2.52149 4.84922 2.5004 6.90664C2.45743 11.1773 5.88829 14.2145 9.64884 16.7668C9.75251 16.8373 9.87501 16.8751 10.0004 16.8751C10.1258 16.8751 10.2483 16.8373 10.352 16.7668C14.1121 14.2145 17.543 11.1773 17.5004 6.90664C17.4793 4.84922 15.8473 3.125 13.7863 3.125Z" fill="black" stroke="black" stroke-width="1.5" stroke-linecap="round" stroke-linejoin="round"/>
  </symbol>
  <symbol id="heart-white-icon" width="20" height="20" viewBox="0 0 20 20">
    <path d="M13.7863 3.125C11.2504 3.125 10.0004 5.625 10.0004 5.625C10.0004 5.625 8.7504 3.125 6.21446 3.125C4.15352 3.125 2.52149 4.84922 2.5004 6.90664C2.45743 11.1773 5.88829 14.2145 9.64884 16.7668C9.75251 16.8373 9.87501 16.8751 10.0004 16.8751C10.1258 16.8751 10.2483 16.8373 10.352 16.7668C14.1121 14.2145 17.543 11.1773 17.5004 6.90664C17.4793 4.84922 15.8473 3.125 13.7863 3.125V3.125Z" stroke="#4C4850" stroke-width="1.5" stroke-linecap="round" stroke-linejoin="round" fill="none"/>
  </symbol>
  <symbol id="instagram-icon" width="20" height="21" viewBox="0 0 20 21">
    <path d="M9.49787 7.66546C7.93707 7.66546 6.66333 8.9392 6.66333 10.5C6.66333 12.0608 7.93707 13.3345 9.49787 13.3345C11.0587 13.3345 12.3324 12.0608 12.3324 10.5C12.3324 8.9392 11.0587 7.66546 9.49787 7.66546ZM17.9994 10.5C17.9994 9.32621 18.01 8.16305 17.9441 6.99138C17.8782 5.63046 17.5677 4.42264 16.5725 3.42747C15.5752 2.43017 14.3695 2.12184 13.0086 2.05592C11.8348 1.99 10.6717 2.00063 9.5 2.00063C8.32621 2.00063 7.16305 1.99 5.99138 2.05592C4.63046 2.12184 3.42264 2.4323 2.42747 3.42747C1.43017 4.42477 1.12184 5.63046 1.05592 6.99138C0.99 8.16517 1.00063 9.32833 1.00063 10.5C1.00063 11.6717 0.99 12.837 1.05592 14.0086C1.12184 15.3695 1.4323 16.5774 2.42747 17.5725C3.42477 18.5698 4.63046 18.8782 5.99138 18.9441C7.16517 19.01 8.32833 18.9994 9.5 18.9994C10.6738 18.9994 11.837 19.01 13.0086 18.9441C14.3695 18.8782 15.5774 18.5677 16.5725 17.5725C17.5698 16.5752 17.8782 15.3695 17.9441 14.0086C18.0121 12.837 17.9994 11.6738 17.9994 10.5ZM9.49787 14.8613C7.08437 14.8613 5.13655 12.9135 5.13655 10.5C5.13655 8.08649 7.08437 6.13868 9.49787 6.13868C11.9114 6.13868 13.8592 8.08649 13.8592 10.5C13.8592 12.9135 11.9114 14.8613 9.49787 14.8613ZM14.0378 6.97862C13.4743 6.97862 13.0193 6.52356 13.0193 5.96006C13.0193 5.39655 13.4743 4.94149 14.0378 4.94149C14.6013 4.94149 15.0564 5.39655 15.0564 5.96006C15.0565 6.09386 15.0303 6.22639 14.9792 6.35004C14.9281 6.4737 14.853 6.58605 14.7584 6.68067C14.6638 6.77528 14.5515 6.8503 14.4278 6.90143C14.3041 6.95256 14.1716 6.97879 14.0378 6.97862Z" fill="currentColor"/>
  </symbol>
  <symbol id="menu-icon" width="24" height="24" viewBox="0 0 24 24">
    <path d="M3.75 7.5H20.25M3.75 12H20.25M3.75 16.5H20.25" stroke="currentColor" stroke-width="1.5" stroke-miterlimit="10" stroke-linecap="round"/>
  </symbol>
  <symbol id="paper-plane" width="16" height="16" viewBox="0 0 16 16">
    <path d="M13.9945 1.06276L1.43443 5.79427L1.42614 5.79741C1.28904 5.85152 1.17159 5.94519 1.08944 6.06768C1.00611 6.19194 0.963168 6.33887 0.966488 6.48844C0.969798 6.63802 1.0192 6.78291 1.10794 6.90335C1.19665 7.02375 1.32034 7.11382 1.46214 7.16131L1.47478 7.16532L1.47695 7.16601L5.76634 8.99779C5.84575 9.02167 5.93003 9.02441 6.01084 9.00574C6.09206 8.98698 6.16693 8.94724 6.22799 8.89049L11.8918 3.62436C11.9144 3.6018 13.5591 1.50005 13.9945 1.06276C15.5591 1 14.3511 2.43463 14.3511 2.43463C14.3511 2.43463 14.2188 2.64735 14.1011 2.99132C14.0784 2.96862 14.1308 3.00361 14.1011 2.99132C14.1238 3.01401 14.6841 3.42114 14.0953 2.98364C14.1076 3.01329 14.1011 2.95922 14.1011 2.99132C14.1011 3.02341 10.9827 12.2336 10.6791 13.0743C9.48689 16.3751 9.97923 14.6696 6.95766 10.0561V9.86347L7.04299 9.70269L13.9945 1.06276ZM13.9945 1.06276C14.1602 1.02896 14.2142 1.03337 14.3511 1.06269C14.4881 1.09202 14.6083 1.12894 14.7074 1.22795M13.9945 1.06276L14.3511 1.06269L14.7074 1.22795M14.7074 1.22795C14.8065 1.32743 14.8746 1.45347 14.9036 1.59084C14.9325 1.72823 14.921 1.87104 14.8705 2.00204L10.1397 14.4993L14.7074 1.22795ZM10.1397 14.4993L9.56004 14.9083C9.71448 14.9092 9.729 14.8408 9.86339 14.8408C9.99159 14.7546 10.104 14.6514 10.1615 14.508L10.1397 14.4993C10.084 14.6382 9.98757 14.7573 9.86339 14.8408C9.74257 14.8835 9.70979 14.9092 9.56004 14.9083M10.1397 14.4993L9.56004 14.9083ZM10.1397 14.4993L9.56004 14.9083ZM10.1397 14.4993C9.83227 15.2658 8.85239 14.773 8.75239 14.4833C8.768 14.4563 8.74832 14.4718 8.74645 14.4655L6.95766 10.0561M9.56004 14.9083C9.26473 14.8948 8.87161 14.7569 8.77455 14.4757C8.77253 14.4703 8.77064 14.4646 8.7689 14.4588L8.768 14.4563L6.9357 10.1644M6.9357 10.1644L6.93606 10.1656L6.95766 10.0561M6.9357 10.1644C6.91182 10.085 6.90907 10.0007 6.92774 9.91985C6.9465 9.83863 7.00032 9.78308 7.04299 9.70269L6.92774 9.91985C6.98049 10.0614 6.93225 9.97238 6.95766 10.0561M6.9357 10.1644L7.11902 10.4539L6.95766 10.0561" fill="black"/>
    <path d="M13.9945 1.06276L1.43443 5.79427L1.42614 5.79741C1.28904 5.85152 1.17159 5.94519 1.08944 6.06768C1.00611 6.19194 0.963168 6.33887 0.966488 6.48844C0.969798 6.63802 1.0192 6.78291 1.10794 6.90335C1.19665 7.02375 1.32034 7.11382 1.46214 7.16131L1.47478 7.16532L1.47695 7.16601L5.76634 8.99779C5.84575 9.02167 5.93003 9.02441 6.01084 9.00574C6.09206 8.98698 6.16693 8.94724 6.22799 8.89049L11.8918 3.62436C11.9144 3.6018 13.5591 1.50005 13.9945 1.06276ZM13.9945 1.06276C15.5591 1 14.3511 2.43463 14.3511 2.43463C14.3511 2.43463 14.2188 2.64735 14.1011 2.99132M13.9945 1.06276L7.04299 9.70269M13.9945 1.06276C14.1602 1.02896 14.2142 1.03337 14.3511 1.06269M13.9945 1.06276L14.3511 1.06269M14.1011 2.99132C14.1308 3.00361 14.0784 2.96862 14.1011 2.99132ZM14.1011 2.99132C14.1238 3.01401 14.6841 3.42114 14.0953 2.98364C14.1076 3.01329 14.1011 2.95922 14.1011 2.99132ZM14.1011 2.99132C14.1011 3.02341 10.9827 12.2336 10.6791 13.0743C9.48689 16.3751 9.97923 14.6696 6.95766 10.0561M6.95766 10.0561L8.74645 14.4655C8.74832 14.4718 8.768 14.4563 8.75239 14.4833C8.85239 14.773 9.83227 15.2658 10.1397 14.4993M6.95766 10.0561L6.93606 10.1656L6.9357 10.1644M6.95766 10.0561C6.93225 9.97238 6.98049 10.0614 6.92774 9.91985M6.95766 10.0561L7.11902 10.4539L6.9357 10.1644M6.95766 10.0561V9.86347L7.04299 9.70269M7.04299 9.70269C7.00032 9.78308 6.9465 9.83863 6.92774 9.91985M7.04299 9.70269L6.92774 9.91985M14.3511 1.06269C14.4881 1.09202 14.6083 1.12894 14.7074 1.22795M14.3511 1.06269L14.7074 1.22795M14.7074 1.22795C14.8065 1.32743 14.8746 1.45347 14.9036 1.59084C14.9325 1.72823 14.921 1.87104 14.8705 2.00204L10.1397 14.4993M14.7074 1.22795L10.1397 14.4993M10.1397 14.4993L9.56004 14.9083M10.1397 14.4993L10.1615 14.508C10.104 14.6514 9.99159 14.7546 9.86339 14.8408M10.1397 14.4993C10.084 14.6382 9.98757 14.7573 9.86339 14.8408M9.56004 14.9083C9.71448 14.9092 9.729 14.8408 9.86339 14.8408M9.56004 14.9083C9.70979 14.9092 9.74257 14.8835 9.86339 14.8408M9.56004 14.9083C9.26473 14.8948 8.87161 14.7569 8.77455 14.4757C8.77253 14.4703 8.77064 14.4646 8.7689 14.4588L8.768 14.4563L6.9357 10.1644M6.9357 10.1644C6.91182 10.085 6.90907 10.0007 6.92774 9.91985" stroke="#112211" stroke-width="0.046875"/>
  </symbol>
  <symbol id="search-icon" width="24" height="24" viewBox="0 0 24 24">
    <path d="M16.9781 15.3281L16.9659 15.3444L16.9803 15.3588L21.3903 19.7688C21.5856 19.9875 21.6898 20.2727 21.6816 20.5658C21.6734 20.8591 21.5532 21.1382 21.3457 21.3457C21.1382 21.5532 20.8591 21.6734 20.5658 21.6816C20.2727 21.6898 19.9875 21.5856 19.7688 21.3903L15.3588 16.9803L15.3444 16.9659L15.3281 16.9781C13.9186 18.0369 12.2029 18.6085 10.44 18.6066C5.93701 18.6066 2.27344 14.943 2.27344 10.44C2.27344 5.93701 5.93701 2.27344 10.44 2.27344C14.943 2.27344 18.6066 5.93701 18.6066 10.44C18.6085 12.2029 18.0369 13.9186 16.9781 15.3281ZM4.56656 10.44V10.44C4.56843 11.9972 5.18783 13.49 6.28891 14.5911C7.38998 15.6922 8.88282 16.3116 10.44 16.3134H10.44C11.6017 16.3134 12.7372 15.969 13.7031 15.3236C14.669 14.6782 15.4218 13.7609 15.8664 12.6877C16.3109 11.6144 16.4272 10.4335 16.2006 9.29415C15.974 8.15481 15.4146 7.10827 14.5931 6.28685C13.7717 5.46544 12.7252 4.90605 11.5859 4.67942C10.4465 4.45279 9.26556 4.56911 8.19233 5.01365C7.1191 5.4582 6.2018 6.21101 5.55642 7.17689C4.91103 8.14278 4.56656 9.27834 4.56656 10.44Z" fill="#112211" stroke="#112211" stroke-width="0.046875"/>
  </symbol>
  <symbol id="twitter-icon" width="20" height="21" viewBox="0 0 20 21">
    <path d="M19.7029 4.26137C19.0071 4.5697 18.2596 4.77803 17.4737 4.8722C18.2846 4.38703 18.8912 3.62342 19.1804 2.72387C18.4186 3.17636 17.5849 3.49486 16.7154 3.66553C16.1307 3.04125 15.3563 2.62747 14.5124 2.48843C13.6684 2.34938 12.8022 2.49286 12.0481 2.89658C11.2941 3.30029 10.6944 3.94167 10.3422 4.72112C9.99003 5.50057 9.90503 6.37449 10.1004 7.2072C8.55682 7.1297 7.04677 6.72849 5.66827 6.02962C4.28977 5.33075 3.07362 4.34983 2.09875 3.15053C1.76542 3.72553 1.57375 4.3922 1.57375 5.1022C1.57338 5.74136 1.73078 6.37073 2.03198 6.93448C2.33319 7.49822 2.76888 7.9789 3.30042 8.33387C2.68398 8.31425 2.08114 8.14769 1.54208 7.84803V7.89803C1.54202 8.79448 1.85211 9.66335 2.41974 10.3572C2.98736 11.051 3.77756 11.5271 4.65625 11.7047C4.0844 11.8595 3.48486 11.8823 2.90292 11.7714C3.15083 12.5427 3.63375 13.2172 4.28406 13.7005C4.93437 14.1837 5.71951 14.4515 6.52958 14.4664C5.15444 15.5459 3.45616 16.1314 1.70792 16.1289C1.39823 16.129 1.08881 16.1109 0.78125 16.0747C2.55581 17.2157 4.62153 17.8212 6.73125 17.8189C13.8729 17.8189 17.7771 11.9039 17.7771 6.77387C17.7771 6.6072 17.7729 6.43887 17.7654 6.2722C18.5248 5.72301 19.1803 5.04295 19.7013 4.26387L19.7029 4.26137Z" fill="currentColor"/>
  </symbol>
  <symbol id="youtube-icon" width="20" height="21" viewBox="0 0 20 21">
    <path d="M19.5829 5.56962C19.4696 5.16564 19.249 4.79991 18.9445 4.51128C18.6314 4.21379 18.2477 4.00098 17.8295 3.89295C16.2645 3.48045 9.99454 3.48045 9.99454 3.48045C7.38065 3.45071 4.7674 3.58151 2.16954 3.87212C1.75136 3.98813 1.36834 4.20569 1.05454 4.50545C0.746204 4.80212 0.522871 5.16795 0.406204 5.56878C0.125949 7.07857 -0.0102189 8.61157 -0.000462243 10.1471C-0.0104622 11.6813 0.125371 13.2138 0.406204 14.7255C0.520371 15.1246 0.742871 15.4888 1.05204 15.783C1.3612 16.0771 1.7462 16.2896 2.16954 16.4021C3.75537 16.8138 9.99454 16.8138 9.99454 16.8138C12.6118 16.8436 15.2283 16.7128 17.8295 16.4221C18.2477 16.3141 18.6314 16.1013 18.9445 15.8038C19.2489 15.5152 19.4693 15.1494 19.582 14.7455C19.8696 13.2362 20.0094 11.7026 19.9995 10.1663C20.0212 8.62345 19.8815 7.08259 19.5829 5.56878V5.56962ZM8.0012 13.0005V7.29462L13.2179 10.148L8.0012 13.0005Z" fill="currentColor"/>
  </symbol>


</svg>
