<svg xmlns="http://www.w3.org/2000/svg">
  <symbol id="add-icon" width="16" height="16" viewBox="0 0 16 16">
    <path d="M8 3.5V12.5V3.5ZM12.5 8H3.5H12.5Z" fill="currentColor"/>
    <path d="M8 3.5V12.5M12.5 8H3.5" stroke="currentColor" stroke-width="1.5" stroke-linecap="round" stroke-linejoin="round"/>
  </symbol>
  <symbol id="airplane" width="24" height="24" viewBox="0 0 24 24">
    <path d="M8.74733 21.75H7.49952C7.37414 21.75 7.25077 21.7185 7.14069 21.6585C7.03062 21.5984 6.93735 21.5118 6.86941 21.4064C6.80147 21.301 6.76104 21.1803 6.7518 21.0552C6.74257 20.9302 6.76483 20.8048 6.81655 20.6906L9.83811 14.0227L5.30108 13.9219L3.64639 15.9267C3.33092 16.3233 3.07921 16.5 2.43702 16.5H1.59702C1.46402 16.5043 1.33195 16.4764 1.212 16.4188C1.09205 16.3612 0.987757 16.2755 0.907956 16.1691C0.796393 16.0186 0.686706 15.7636 0.793581 15.3998L1.72264 12.0717C1.72967 12.0469 1.73811 12.022 1.74749 11.9977C1.74795 11.9953 1.74795 11.9929 1.74749 11.9906C1.73781 11.9663 1.72951 11.9414 1.72264 11.9161L0.792643 8.56687C0.691862 8.21016 0.802018 7.96078 0.912643 7.81406C0.986929 7.71549 1.08331 7.63573 1.19403 7.58118C1.30475 7.52664 1.42672 7.49883 1.55014 7.5H2.43702C2.91655 7.5 3.38202 7.71516 3.65577 8.0625L5.27624 10.0336L9.83811 9.96609L6.81749 3.30984C6.7657 3.19568 6.74335 3.07036 6.75249 2.94533C6.76163 2.8203 6.80196 2.69956 6.8698 2.59414C6.93764 2.48872 7.03082 2.40198 7.14083 2.34186C7.25083 2.28175 7.37416 2.25016 7.49952 2.25H8.76092C8.9369 2.25354 9.10983 2.29667 9.26685 2.3762C9.42388 2.45572 9.56097 2.5696 9.66796 2.70937L15.5297 9.83438L18.2376 9.76312C18.4359 9.75234 18.9853 9.74859 19.1123 9.74859C21.7026 9.75 23.2495 10.5909 23.2495 12C23.2495 12.4434 23.0723 13.2656 21.8869 13.7887C21.187 14.0981 20.2533 14.2547 19.1114 14.2547C18.9858 14.2547 18.4378 14.2509 18.2367 14.2402L15.5292 14.168L9.65296 21.293C9.54588 21.4321 9.40891 21.5454 9.25216 21.6246C9.0954 21.7037 8.92288 21.7465 8.74733 21.75Z" fill="currentColor"/>
  </symbol>
  <symbol id="arrow-right" width="16" height="17" viewBox="0 0 16 17">
    <path d="M6 4L10.5 8.5L6 13" stroke="black" stroke-width="1.5" stroke-linecap="round" stroke-linejoin="round" fill="currentColor"/>
  </symbol>
  <symbol id="bed" width="24" height="24" viewBox="0 0 24 24">
    <path d="M20.25 10.8141C19.7772 10.6065 19.2664 10.4996 18.75 10.5H5.25C4.73368 10.4995 4.22288 10.6063 3.75 10.8136C3.08166 11.1059 2.51294 11.5865 2.11336 12.1968C1.71377 12.8071 1.50064 13.5205 1.5 14.25V19.5C1.5 19.6989 1.57902 19.8897 1.71967 20.0303C1.86032 20.171 2.05109 20.25 2.25 20.25C2.44891 20.25 2.63968 20.171 2.78033 20.0303C2.92098 19.8897 3 19.6989 3 19.5V19.125C3.00122 19.0259 3.04112 18.9312 3.11118 18.8612C3.18124 18.7911 3.27592 18.7512 3.375 18.75H20.625C20.7241 18.7512 20.8188 18.7911 20.8888 18.8612C20.9589 18.9312 20.9988 19.0259 21 19.125V19.5C21 19.6989 21.079 19.8897 21.2197 20.0303C21.3603 20.171 21.5511 20.25 21.75 20.25C21.9489 20.25 22.1397 20.171 22.2803 20.0303C22.421 19.8897 22.5 19.6989 22.5 19.5V14.25C22.4993 13.5206 22.2861 12.8073 21.8865 12.1971C21.4869 11.5869 20.9183 11.1063 20.25 10.8141ZM17.625 3.75H6.375C5.67881 3.75 5.01113 4.02656 4.51884 4.51884C4.02656 5.01113 3.75 5.67881 3.75 6.375V9.75C3.75002 9.77906 3.75679 9.80771 3.76979 9.8337C3.78278 9.85969 3.80163 9.8823 3.82486 9.89976C3.84809 9.91721 3.87505 9.92903 3.90363 9.93428C3.93221 9.93953 3.96162 9.93806 3.98953 9.93C4.39896 9.81025 4.82341 9.74964 5.25 9.75H5.44828C5.49456 9.75029 5.53932 9.73346 5.57393 9.70274C5.60855 9.67202 5.63058 9.62958 5.63578 9.58359C5.67669 9.21712 5.85115 8.87856 6.12586 8.63256C6.40056 8.38656 6.75625 8.25037 7.125 8.25H9.75C10.119 8.25003 10.475 8.38606 10.75 8.63209C11.025 8.87812 11.1997 9.21688 11.2406 9.58359C11.2458 9.62958 11.2679 9.67202 11.3025 9.70274C11.3371 9.73346 11.3818 9.75029 11.4281 9.75H12.5747C12.621 9.75029 12.6657 9.73346 12.7003 9.70274C12.735 9.67202 12.757 9.62958 12.7622 9.58359C12.8031 9.21736 12.9773 8.87899 13.2517 8.63303C13.5261 8.38706 13.8815 8.25072 14.25 8.25H16.875C17.244 8.25003 17.6 8.38606 17.875 8.63209C18.15 8.87812 18.3247 9.21688 18.3656 9.58359C18.3708 9.62958 18.3929 9.67202 18.4275 9.70274C18.4621 9.73346 18.5068 9.75029 18.5531 9.75H18.75C19.1766 9.74979 19.6011 9.81057 20.0105 9.93047C20.0384 9.93854 20.0679 9.94 20.0965 9.93473C20.1251 9.92945 20.1521 9.91759 20.1753 9.90009C20.1986 9.88258 20.2174 9.8599 20.2304 9.83385C20.2433 9.8078 20.2501 9.7791 20.25 9.75V6.375C20.25 5.67881 19.9734 5.01113 19.4812 4.51884C18.9889 4.02656 18.3212 3.75 17.625 3.75Z" fill="currentColor"/>
  </symbol>
  <symbol id="building-icon" width="16" height="16" viewBox="0 0 16 16">
    <mask id="path-1-inside-1_464_3613" fill="white">
      <path d="M13.5 5.5H10V2C10 1.60218 9.84196 1.22064 9.56066 0.93934C9.27936 0.658035 8.89782 0.5 8.5 0.5H2.5C2.10218 0.5 1.72064 0.658035 1.43934 0.93934C1.15804 1.22064 1 1.60218 1 2V15C1 15.1326 1.05268 15.2598 1.14645 15.3536C1.24021 15.4473 1.36739 15.5 1.5 15.5H4.75C4.8163 15.5 4.87989 15.4737 4.92678 15.4268C4.97366 15.3799 5 15.3163 5 15.25V13.0141C5 12.745 5.20687 12.5141 5.47594 12.5006C5.54354 12.4974 5.6111 12.5079 5.67453 12.5315C5.73796 12.5551 5.79593 12.5914 5.84492 12.6381C5.89392 12.6848 5.93293 12.7409 5.95959 12.8031C5.98625 12.8653 5.99999 12.9323 6 13V15.25C6 15.3163 6.02634 15.3799 6.07322 15.4268C6.12011 15.4737 6.1837 15.5 6.25 15.5H14.5C14.6326 15.5 14.7598 15.4473 14.8536 15.3536C14.9473 15.2598 15 15.1326 15 15V7C15 6.60218 14.842 6.22064 14.5607 5.93934C14.2794 5.65804 13.8978 5.5 13.5 5.5V5.5ZM3.065 13.4959C2.96145 13.5095 2.85625 13.4903 2.76418 13.441C2.67211 13.3917 2.59778 13.3148 2.55163 13.2211C2.50548 13.1274 2.48982 13.0216 2.50686 12.9186C2.52389 12.8156 2.57276 12.7205 2.64661 12.6466C2.72045 12.5728 2.81557 12.5239 2.91861 12.5069C3.02164 12.4898 3.12743 12.5055 3.22111 12.5516C3.3148 12.5978 3.39168 12.6721 3.44097 12.7642C3.49026 12.8563 3.50948 12.9614 3.49594 13.065C3.48165 13.1743 3.43165 13.2758 3.35371 13.3537C3.27578 13.4316 3.17428 13.4816 3.065 13.4959V13.4959ZM3.065 10.9959C2.96145 11.0095 2.85625 10.9903 2.76418 10.941C2.67211 10.8917 2.59778 10.8148 2.55163 10.7211C2.50548 10.6274 2.48982 10.5216 2.50686 10.4186C2.52389 10.3156 2.57276 10.2205 2.64661 10.1466C2.72045 10.0728 2.81557 10.0239 2.91861 10.0069C3.02164 9.98982 3.12743 10.0055 3.22111 10.0516C3.3148 10.0978 3.39168 10.1721 3.44097 10.2642C3.49026 10.3563 3.50948 10.4614 3.49594 10.565C3.48165 10.6743 3.43165 10.7758 3.35371 10.8537C3.27578 10.9316 3.17428 10.9816 3.065 10.9959V10.9959ZM3.065 8.49594C2.96145 8.50948 2.85625 8.49026 2.76418 8.44097C2.67211 8.39168 2.59778 8.3148 2.55163 8.22111C2.50548 8.12743 2.48982 8.02164 2.50686 7.91861C2.52389 7.81557 2.57276 7.72045 2.64661 7.64661C2.72045 7.57276 2.81557 7.52389 2.91861 7.50686C3.02164 7.48982 3.12743 7.50548 3.22111 7.55163C3.3148 7.59778 3.39168 7.67211 3.44097 7.76418C3.49026 7.85625 3.50948 7.96145 3.49594 8.065C3.48165 8.17428 3.43165 8.27578 3.35371 8.35371C3.27578 8.43165 3.17428 8.48164 3.065 8.49594V8.49594ZM3.065 5.99594C2.96145 6.00948 2.85625 5.99026 2.76418 5.94097C2.67211 5.89168 2.59778 5.8148 2.55163 5.72111C2.50548 5.62743 2.48982 5.52164 2.50686 5.41861C2.52389 5.31557 2.57276 5.22045 2.64661 5.14661C2.72045 5.07276 2.81557 5.02389 2.91861 5.00686C3.02164 4.98982 3.12743 5.00548 3.22111 5.05163C3.3148 5.09778 3.39168 5.17211 3.44097 5.26418C3.49026 5.35625 3.50948 5.46145 3.49594 5.565C3.48165 5.67428 3.43165 5.77578 3.35371 5.85371C3.27578 5.93165 3.17428 5.98164 3.065 5.99594V5.99594ZM3.065 3.49594C2.96145 3.50948 2.85625 3.49026 2.76418 3.44097C2.67211 3.39168 2.59778 3.3148 2.55163 3.22111C2.50548 3.12743 2.48982 3.02164 2.50686 2.91861C2.52389 2.81557 2.57276 2.72045 2.64661 2.64661C2.72045 2.57276 2.81557 2.52389 2.91861 2.50686C3.02164 2.48982 3.12743 2.50548 3.22111 2.55163C3.3148 2.59778 3.39168 2.67211 3.44097 2.76418C3.49026 2.85625 3.50948 2.96145 3.49594 3.065C3.48165 3.17428 3.43165 3.27578 3.35371 3.35371C3.27578 3.43165 3.17428 3.48165 3.065 3.49594V3.49594ZM5.565 10.9959C5.46145 11.0095 5.35625 10.9903 5.26418 10.941C5.17211 10.8917 5.09778 10.8148 5.05163 10.7211C5.00548 10.6274 4.98982 10.5216 5.00686 10.4186C5.02389 10.3156 5.07276 10.2205 5.14661 10.1466C5.22045 10.0728 5.31557 10.0239 5.41861 10.0069C5.52164 9.98982 5.62743 10.0055 5.72111 10.0516C5.8148 10.0978 5.89168 10.1721 5.94097 10.2642C5.99026 10.3563 6.00948 10.4614 5.99594 10.565C5.98164 10.6743 5.93165 10.7758 5.85371 10.8537C5.77578 10.9316 5.67428 10.9816 5.565 10.9959V10.9959ZM5.565 8.49594C5.46145 8.50948 5.35625 8.49026 5.26418 8.44097C5.17211 8.39168 5.09778 8.3148 5.05163 8.22111C5.00548 8.12743 4.98982 8.02164 5.00686 7.91861C5.02389 7.81557 5.07276 7.72045 5.14661 7.64661C5.22045 7.57276 5.31557 7.52389 5.41861 7.50686C5.52164 7.48982 5.62743 7.50548 5.72111 7.55163C5.8148 7.59778 5.89168 7.67211 5.94097 7.76418C5.99026 7.85625 6.00948 7.96145 5.99594 8.065C5.98164 8.17428 5.93165 8.27578 5.85371 8.35371C5.77578 8.43165 5.67428 8.48164 5.565 8.49594V8.49594ZM5.565 5.99594C5.46145 6.00948 5.35625 5.99026 5.26418 5.94097C5.17211 5.89168 5.09778 5.8148 5.05163 5.72111C5.00548 5.62743 4.98982 5.52164 5.00686 5.41861C5.02389 5.31557 5.07276 5.22045 5.14661 5.14661C5.22045 5.07276 5.31557 5.02389 5.41861 5.00686C5.52164 4.98982 5.62743 5.00548 5.72111 5.05163C5.8148 5.09778 5.89168 5.17211 5.94097 5.26418C5.99026 5.35625 6.00948 5.46145 5.99594 5.565C5.98164 5.67428 5.93165 5.77578 5.85371 5.85371C5.77578 5.93165 5.67428 5.98164 5.565 5.99594V5.99594ZM5.565 3.49594C5.46145 3.50948 5.35625 3.49026 5.26418 3.44097C5.17211 3.39168 5.09778 3.3148 5.05163 3.22111C5.00548 3.12743 4.98982 3.02164 5.00686 2.91861C5.02389 2.81557 5.07276 2.72045 5.14661 2.64661C5.22045 2.57276 5.31557 2.52389 5.41861 2.50686C5.52164 2.48982 5.62743 2.50548 5.72111 2.55163C5.8148 2.59778 5.89168 2.67211 5.94097 2.76418C5.99026 2.85625 6.00948 2.96145 5.99594 3.065C5.98164 3.17428 5.93165 3.27578 5.85371 3.35371C5.77578 3.43165 5.67428 3.48165 5.565 3.49594V3.49594ZM8.065 13.4959C7.96145 13.5095 7.85625 13.4903 7.76418 13.441C7.67211 13.3917 7.59778 13.3148 7.55163 13.2211C7.50548 13.1274 7.48982 13.0216 7.50686 12.9186C7.52389 12.8156 7.57276 12.7205 7.64661 12.6466C7.72045 12.5728 7.81557 12.5239 7.91861 12.5069C8.02164 12.4898 8.12743 12.5055 8.22111 12.5516C8.3148 12.5978 8.39168 12.6721 8.44097 12.7642C8.49026 12.8563 8.50948 12.9614 8.49594 13.065C8.48164 13.1743 8.43165 13.2758 8.35371 13.3537C8.27578 13.4316 8.17428 13.4816 8.065 13.4959V13.4959ZM8.065 10.9959C7.96145 11.0095 7.85625 10.9903 7.76418 10.941C7.67211 10.8917 7.59778 10.8148 7.55163 10.7211C7.50548 10.6274 7.48982 10.5216 7.50686 10.4186C7.52389 10.3156 7.57276 10.2205 7.64661 10.1466C7.72045 10.0728 7.81557 10.0239 7.91861 10.0069C8.02164 9.98982 8.12743 10.0055 8.22111 10.0516C8.3148 10.0978 8.39168 10.1721 8.44097 10.2642C8.49026 10.3563 8.50948 10.4614 8.49594 10.565C8.48164 10.6743 8.43165 10.7758 8.35371 10.8537C8.27578 10.9316 8.17428 10.9816 8.065 10.9959V10.9959ZM8.065 8.49594C7.96145 8.50948 7.85625 8.49026 7.76418 8.44097C7.67211 8.39168 7.59778 8.3148 7.55163 8.22111C7.50548 8.12743 7.48982 8.02164 7.50686 7.91861C7.52389 7.81557 7.57276 7.72045 7.64661 7.64661C7.72045 7.57276 7.81557 7.52389 7.91861 7.50686C8.02164 7.48982 8.12743 7.50548 8.22111 7.55163C8.3148 7.59778 8.39168 7.67211 8.44097 7.76418C8.49026 7.85625 8.50948 7.96145 8.49594 8.065C8.48164 8.17428 8.43165 8.27578 8.35371 8.35371C8.27578 8.43165 8.17428 8.48164 8.065 8.49594V8.49594ZM8.065 5.99594C7.96145 6.00948 7.85625 5.99026 7.76418 5.94097C7.67211 5.89168 7.59778 5.8148 7.55163 5.72111C7.50548 5.62743 7.48982 5.52164 7.50686 5.41861C7.52389 5.31557 7.57276 5.22045 7.64661 5.14661C7.72045 5.07276 7.81557 5.02389 7.91861 5.00686C8.02164 4.98982 8.12743 5.00548 8.22111 5.05163C8.3148 5.09778 8.39168 5.17211 8.44097 5.26418C8.49026 5.35625 8.50948 5.46145 8.49594 5.565C8.48164 5.67428 8.43165 5.77578 8.35371 5.85371C8.27578 5.93165 8.17428 5.98164 8.065 5.99594V5.99594ZM8.065 3.49594C7.96145 3.50948 7.85625 3.49026 7.76418 3.44097C7.67211 3.39168 7.59778 3.3148 7.55163 3.22111C7.50548 3.12743 7.48982 3.02164 7.50686 2.91861C7.52389 2.81557 7.57276 2.72045 7.64661 2.64661C7.72045 2.57276 7.81557 2.52389 7.91861 2.50686C8.02164 2.48982 8.12743 2.50548 8.22111 2.55163C8.3148 2.59778 8.39168 2.67211 8.44097 2.76418C8.49026 2.85625 8.50948 2.96145 8.49594 3.065C8.48164 3.17428 8.43165 3.27578 8.35371 3.35371C8.27578 3.43165 8.17428 3.48165 8.065 3.49594V3.49594ZM13.875 14.5H10V6.5H13.5C13.6326 6.5 13.7598 6.55268 13.8536 6.64645C13.9473 6.74021 14 6.86739 14 7V14.375C14 14.4082 13.9868 14.4399 13.9634 14.4634C13.9399 14.4868 13.9082 14.5 13.875 14.5Z"/>
    </mask>
    <path d="M13.5 5.5H10V2C10 1.60218 9.84196 1.22064 9.56066 0.93934C9.27936 0.658035 8.89782 0.5 8.5 0.5H2.5C2.10218 0.5 1.72064 0.658035 1.43934 0.93934C1.15804 1.22064 1 1.60218 1 2V15C1 15.1326 1.05268 15.2598 1.14645 15.3536C1.24021 15.4473 1.36739 15.5 1.5 15.5H4.75C4.8163 15.5 4.87989 15.4737 4.92678 15.4268C4.97366 15.3799 5 15.3163 5 15.25V13.0141C5 12.745 5.20687 12.5141 5.47594 12.5006C5.54354 12.4974 5.6111 12.5079 5.67453 12.5315C5.73796 12.5551 5.79593 12.5914 5.84492 12.6381C5.89392 12.6848 5.93293 12.7409 5.95959 12.8031C5.98625 12.8653 5.99999 12.9323 6 13V15.25C6 15.3163 6.02634 15.3799 6.07322 15.4268C6.12011 15.4737 6.1837 15.5 6.25 15.5H14.5C14.6326 15.5 14.7598 15.4473 14.8536 15.3536C14.9473 15.2598 15 15.1326 15 15V7C15 6.60218 14.842 6.22064 14.5607 5.93934C14.2794 5.65804 13.8978 5.5 13.5 5.5V5.5ZM3.065 13.4959C2.96145 13.5095 2.85625 13.4903 2.76418 13.441C2.67211 13.3917 2.59778 13.3148 2.55163 13.2211C2.50548 13.1274 2.48982 13.0216 2.50686 12.9186C2.52389 12.8156 2.57276 12.7205 2.64661 12.6466C2.72045 12.5728 2.81557 12.5239 2.91861 12.5069C3.02164 12.4898 3.12743 12.5055 3.22111 12.5516C3.3148 12.5978 3.39168 12.6721 3.44097 12.7642C3.49026 12.8563 3.50948 12.9614 3.49594 13.065C3.48165 13.1743 3.43165 13.2758 3.35371 13.3537C3.27578 13.4316 3.17428 13.4816 3.065 13.4959V13.4959ZM3.065 10.9959C2.96145 11.0095 2.85625 10.9903 2.76418 10.941C2.67211 10.8917 2.59778 10.8148 2.55163 10.7211C2.50548 10.6274 2.48982 10.5216 2.50686 10.4186C2.52389 10.3156 2.57276 10.2205 2.64661 10.1466C2.72045 10.0728 2.81557 10.0239 2.91861 10.0069C3.02164 9.98982 3.12743 10.0055 3.22111 10.0516C3.3148 10.0978 3.39168 10.1721 3.44097 10.2642C3.49026 10.3563 3.50948 10.4614 3.49594 10.565C3.48165 10.6743 3.43165 10.7758 3.35371 10.8537C3.27578 10.9316 3.17428 10.9816 3.065 10.9959V10.9959ZM3.065 8.49594C2.96145 8.50948 2.85625 8.49026 2.76418 8.44097C2.67211 8.39168 2.59778 8.3148 2.55163 8.22111C2.50548 8.12743 2.48982 8.02164 2.50686 7.91861C2.52389 7.81557 2.57276 7.72045 2.64661 7.64661C2.72045 7.57276 2.81557 7.52389 2.91861 7.50686C3.02164 7.48982 3.12743 7.50548 3.22111 7.55163C3.3148 7.59778 3.39168 7.67211 3.44097 7.76418C3.49026 7.85625 3.50948 7.96145 3.49594 8.065C3.48165 8.17428 3.43165 8.27578 3.35371 8.35371C3.27578 8.43165 3.17428 8.48164 3.065 8.49594V8.49594ZM3.065 5.99594C2.96145 6.00948 2.85625 5.99026 2.76418 5.94097C2.67211 5.89168 2.59778 5.8148 2.55163 5.72111C2.50548 5.62743 2.48982 5.52164 2.50686 5.41861C2.52389 5.31557 2.57276 5.22045 2.64661 5.14661C2.72045 5.07276 2.81557 5.02389 2.91861 5.00686C3.02164 4.98982 3.12743 5.00548 3.22111 5.05163C3.3148 5.09778 3.39168 5.17211 3.44097 5.26418C3.49026 5.35625 3.50948 5.46145 3.49594 5.565C3.48165 5.67428 3.43165 5.77578 3.35371 5.85371C3.27578 5.93165 3.17428 5.98164 3.065 5.99594V5.99594ZM3.065 3.49594C2.96145 3.50948 2.85625 3.49026 2.76418 3.44097C2.67211 3.39168 2.59778 3.3148 2.55163 3.22111C2.50548 3.12743 2.48982 3.02164 2.50686 2.91861C2.52389 2.81557 2.57276 2.72045 2.64661 2.64661C2.72045 2.57276 2.81557 2.52389 2.91861 2.50686C3.02164 2.48982 3.12743 2.50548 3.22111 2.55163C3.3148 2.59778 3.39168 2.67211 3.44097 2.76418C3.49026 2.85625 3.50948 2.96145 3.49594 3.065C3.48165 3.17428 3.43165 3.27578 3.35371 3.35371C3.27578 3.43165 3.17428 3.48165 3.065 3.49594V3.49594ZM5.565 10.9959C5.46145 11.0095 5.35625 10.9903 5.26418 10.941C5.17211 10.8917 5.09778 10.8148 5.05163 10.7211C5.00548 10.6274 4.98982 10.5216 5.00686 10.4186C5.02389 10.3156 5.07276 10.2205 5.14661 10.1466C5.22045 10.0728 5.31557 10.0239 5.41861 10.0069C5.52164 9.98982 5.62743 10.0055 5.72111 10.0516C5.8148 10.0978 5.89168 10.1721 5.94097 10.2642C5.99026 10.3563 6.00948 10.4614 5.99594 10.565C5.98164 10.6743 5.93165 10.7758 5.85371 10.8537C5.77578 10.9316 5.67428 10.9816 5.565 10.9959V10.9959ZM5.565 8.49594C5.46145 8.50948 5.35625 8.49026 5.26418 8.44097C5.17211 8.39168 5.09778 8.3148 5.05163 8.22111C5.00548 8.12743 4.98982 8.02164 5.00686 7.91861C5.02389 7.81557 5.07276 7.72045 5.14661 7.64661C5.22045 7.57276 5.31557 7.52389 5.41861 7.50686C5.52164 7.48982 5.62743 7.50548 5.72111 7.55163C5.8148 7.59778 5.89168 7.67211 5.94097 7.76418C5.99026 7.85625 6.00948 7.96145 5.99594 8.065C5.98164 8.17428 5.93165 8.27578 5.85371 8.35371C5.77578 8.43165 5.67428 8.48164 5.565 8.49594V8.49594ZM5.565 5.99594C5.46145 6.00948 5.35625 5.99026 5.26418 5.94097C5.17211 5.89168 5.09778 5.8148 5.05163 5.72111C5.00548 5.62743 4.98982 5.52164 5.00686 5.41861C5.02389 5.31557 5.07276 5.22045 5.14661 5.14661C5.22045 5.07276 5.31557 5.02389 5.41861 5.00686C5.52164 4.98982 5.62743 5.00548 5.72111 5.05163C5.8148 5.09778 5.89168 5.17211 5.94097 5.26418C5.99026 5.35625 6.00948 5.46145 5.99594 5.565C5.98164 5.67428 5.93165 5.77578 5.85371 5.85371C5.77578 5.93165 5.67428 5.98164 5.565 5.99594V5.99594ZM5.565 3.49594C5.46145 3.50948 5.35625 3.49026 5.26418 3.44097C5.17211 3.39168 5.09778 3.3148 5.05163 3.22111C5.00548 3.12743 4.98982 3.02164 5.00686 2.91861C5.02389 2.81557 5.07276 2.72045 5.14661 2.64661C5.22045 2.57276 5.31557 2.52389 5.41861 2.50686C5.52164 2.48982 5.62743 2.50548 5.72111 2.55163C5.8148 2.59778 5.89168 2.67211 5.94097 2.76418C5.99026 2.85625 6.00948 2.96145 5.99594 3.065C5.98164 3.17428 5.93165 3.27578 5.85371 3.35371C5.77578 3.43165 5.67428 3.48165 5.565 3.49594V3.49594ZM8.065 13.4959C7.96145 13.5095 7.85625 13.4903 7.76418 13.441C7.67211 13.3917 7.59778 13.3148 7.55163 13.2211C7.50548 13.1274 7.48982 13.0216 7.50686 12.9186C7.52389 12.8156 7.57276 12.7205 7.64661 12.6466C7.72045 12.5728 7.81557 12.5239 7.91861 12.5069C8.02164 12.4898 8.12743 12.5055 8.22111 12.5516C8.3148 12.5978 8.39168 12.6721 8.44097 12.7642C8.49026 12.8563 8.50948 12.9614 8.49594 13.065C8.48164 13.1743 8.43165 13.2758 8.35371 13.3537C8.27578 13.4316 8.17428 13.4816 8.065 13.4959V13.4959ZM8.065 10.9959C7.96145 11.0095 7.85625 10.9903 7.76418 10.941C7.67211 10.8917 7.59778 10.8148 7.55163 10.7211C7.50548 10.6274 7.48982 10.5216 7.50686 10.4186C7.52389 10.3156 7.57276 10.2205 7.64661 10.1466C7.72045 10.0728 7.81557 10.0239 7.91861 10.0069C8.02164 9.98982 8.12743 10.0055 8.22111 10.0516C8.3148 10.0978 8.39168 10.1721 8.44097 10.2642C8.49026 10.3563 8.50948 10.4614 8.49594 10.565C8.48164 10.6743 8.43165 10.7758 8.35371 10.8537C8.27578 10.9316 8.17428 10.9816 8.065 10.9959V10.9959ZM8.065 8.49594C7.96145 8.50948 7.85625 8.49026 7.76418 8.44097C7.67211 8.39168 7.59778 8.3148 7.55163 8.22111C7.50548 8.12743 7.48982 8.02164 7.50686 7.91861C7.52389 7.81557 7.57276 7.72045 7.64661 7.64661C7.72045 7.57276 7.81557 7.52389 7.91861 7.50686C8.02164 7.48982 8.12743 7.50548 8.22111 7.55163C8.3148 7.59778 8.39168 7.67211 8.44097 7.76418C8.49026 7.85625 8.50948 7.96145 8.49594 8.065C8.48164 8.17428 8.43165 8.27578 8.35371 8.35371C8.27578 8.43165 8.17428 8.48164 8.065 8.49594V8.49594ZM8.065 5.99594C7.96145 6.00948 7.85625 5.99026 7.76418 5.94097C7.67211 5.89168 7.59778 5.8148 7.55163 5.72111C7.50548 5.62743 7.48982 5.52164 7.50686 5.41861C7.52389 5.31557 7.57276 5.22045 7.64661 5.14661C7.72045 5.07276 7.81557 5.02389 7.91861 5.00686C8.02164 4.98982 8.12743 5.00548 8.22111 5.05163C8.3148 5.09778 8.39168 5.17211 8.44097 5.26418C8.49026 5.35625 8.50948 5.46145 8.49594 5.565C8.48164 5.67428 8.43165 5.77578 8.35371 5.85371C8.27578 5.93165 8.17428 5.98164 8.065 5.99594V5.99594ZM8.065 3.49594C7.96145 3.50948 7.85625 3.49026 7.76418 3.44097C7.67211 3.39168 7.59778 3.3148 7.55163 3.22111C7.50548 3.12743 7.48982 3.02164 7.50686 2.91861C7.52389 2.81557 7.57276 2.72045 7.64661 2.64661C7.72045 2.57276 7.81557 2.52389 7.91861 2.50686C8.02164 2.48982 8.12743 2.50548 8.22111 2.55163C8.3148 2.59778 8.39168 2.67211 8.44097 2.76418C8.49026 2.85625 8.50948 2.96145 8.49594 3.065C8.48164 3.17428 8.43165 3.27578 8.35371 3.35371C8.27578 3.43165 8.17428 3.48165 8.065 3.49594V3.49594ZM13.875 14.5H10V6.5H13.5C13.6326 6.5 13.7598 6.55268 13.8536 6.64645C13.9473 6.74021 14 6.86739 14 7V14.375C14 14.4082 13.9868 14.4399 13.9634 14.4634C13.9399 14.4868 13.9082 14.5 13.875 14.5Z" fill="black" stroke="#112211" stroke-width="0.09375" mask="url(#path-1-inside-1_464_3613)"/>
    <path d="M12.5 12.5C12.4011 12.5 12.3044 12.5293 12.2222 12.5843C12.14 12.6392 12.0759 12.7173 12.0381 12.8087C12.0002 12.9 11.9903 13.0006 12.0096 13.0975C12.0289 13.1945 12.0765 13.2836 12.1464 13.3536C12.2164 13.4235 12.3055 13.4711 12.4025 13.4904C12.4994 13.5097 12.6 13.4998 12.6913 13.4619C12.7827 13.4241 12.8608 13.36 12.9157 13.2778C12.9707 13.1956 13 13.0989 13 13C13 12.8674 12.9473 12.7402 12.8536 12.6464C12.7598 12.5527 12.6326 12.5 12.5 12.5ZM12.5 10C12.4011 10 12.3044 10.0293 12.2222 10.0843C12.14 10.1392 12.0759 10.2173 12.0381 10.3087C12.0002 10.4 11.9903 10.5006 12.0096 10.5975C12.0289 10.6945 12.0765 10.7836 12.1464 10.8536C12.2164 10.9235 12.3055 10.9711 12.4025 10.9904C12.4994 11.0097 12.6 10.9998 12.6913 10.9619C12.7827 10.9241 12.8608 10.86 12.9157 10.7778C12.9707 10.6956 13 10.5989 13 10.5C13 10.3674 12.9473 10.2402 12.8536 10.1464C12.7598 10.0527 12.6326 10 12.5 10ZM12.5 7.5C12.4011 7.5 12.3044 7.52932 12.2222 7.58427C12.14 7.63921 12.0759 7.7173 12.0381 7.80866C12.0002 7.90002 11.9903 8.00056 12.0096 8.09755C12.0289 8.19454 12.0765 8.28363 12.1464 8.35355C12.2164 8.42348 12.3055 8.4711 12.4025 8.49039C12.4994 8.50969 12.6 8.49978 12.6913 8.46194C12.7827 8.4241 12.8608 8.36001 12.9157 8.27779C12.9707 8.19556 13 8.09889 13 8C13 7.86739 12.9473 7.74021 12.8536 7.64645C12.7598 7.55268 12.6326 7.5 12.5 7.5ZM10.5 12.5C10.4011 12.5 10.3044 12.5293 10.2222 12.5843C10.14 12.6392 10.0759 12.7173 10.0381 12.8087C10.0002 12.9 9.99031 13.0006 10.0096 13.0975C10.0289 13.1945 10.0765 13.2836 10.1464 13.3536C10.2164 13.4235 10.3055 13.4711 10.4025 13.4904C10.4994 13.5097 10.6 13.4998 10.6913 13.4619C10.7827 13.4241 10.8608 13.36 10.9157 13.2778C10.9707 13.1956 11 13.0989 11 13C11 12.8674 10.9473 12.7402 10.8536 12.6464C10.7598 12.5527 10.6326 12.5 10.5 12.5ZM10.5 10C10.4011 10 10.3044 10.0293 10.2222 10.0843C10.14 10.1392 10.0759 10.2173 10.0381 10.3087C10.0002 10.4 9.99031 10.5006 10.0096 10.5975C10.0289 10.6945 10.0765 10.7836 10.1464 10.8536C10.2164 10.9235 10.3055 10.9711 10.4025 10.9904C10.4994 11.0097 10.6 10.9998 10.6913 10.9619C10.7827 10.9241 10.8608 10.86 10.9157 10.7778C10.9707 10.6956 11 10.5989 11 10.5C11 10.3674 10.9473 10.2402 10.8536 10.1464C10.7598 10.0527 10.6326 10 10.5 10ZM10.5 7.5C10.4011 7.5 10.3044 7.52932 10.2222 7.58427C10.14 7.63921 10.0759 7.7173 10.0381 7.80866C10.0002 7.90002 9.99031 8.00056 10.0096 8.09755C10.0289 8.19454 10.0765 8.28363 10.1464 8.35355C10.2164 8.42348 10.3055 8.4711 10.4025 8.49039C10.4994 8.50969 10.6 8.49978 10.6913 8.46194C10.7827 8.4241 10.8608 8.36001 10.9157 8.27779C10.9707 8.19556 11 8.09889 11 8C11 7.86739 10.9473 7.74021 10.8536 7.64645C10.7598 7.55268 10.6326 7.5 10.5 7.5Z" fill="black"/>
  </symbol>
  <symbol id="card-icon" width="18" height="19" viewBox="0 0 18 19">
    <path d="M1.125 13.7188C1.125 14.2409 1.33242 14.7417 1.70163 15.1109C2.07085 15.4801 2.57161 15.6875 3.09375 15.6875H14.9062C15.4284 15.6875 15.9292 15.4801 16.2984 15.1109C16.6676 14.7417 16.875 14.2409 16.875 13.7188V8.30469H1.125V13.7188ZM3.44531 11.0469C3.44531 10.7672 3.55643 10.4989 3.75422 10.3011C3.95202 10.1033 4.22028 9.99219 4.5 9.99219H6.1875C6.46722 9.99219 6.73548 10.1033 6.93328 10.3011C7.13107 10.4989 7.24219 10.7672 7.24219 11.0469V11.75C7.24219 12.0297 7.13107 12.298 6.93328 12.4958C6.73548 12.6936 6.46722 12.8047 6.1875 12.8047H4.5C4.22028 12.8047 3.95202 12.6936 3.75422 12.4958C3.55643 12.298 3.44531 12.0297 3.44531 11.75V11.0469ZM14.9062 3.3125H3.09375C2.57161 3.3125 2.07085 3.51992 1.70163 3.88913C1.33242 4.25835 1.125 4.75911 1.125 5.28125V6.19531H16.875V5.28125C16.875 4.75911 16.6676 4.25835 16.2984 3.88913C15.9292 3.51992 15.4284 3.3125 14.9062 3.3125Z" fill="currentColor"/>
  </symbol>
  <symbol id="facebook-icon" width="20" height="21" viewBox="0 0 20 21">
    <path fill-rule="evenodd" clip-rule="evenodd" d="M1 10.0503C1 14.5248 4.24975 18.2455 8.5 19V12.4998H6.25V10H8.5V7.99975C8.5 5.74975 9.94975 4.50025 12.0002 4.50025C12.6497 4.50025 13.3503 4.6 13.9998 4.69975V7H12.85C11.7498 7 11.5 7.54975 11.5 8.25025V10H13.9L13.5002 12.4998H11.5V19C15.7502 18.2455 19 14.5255 19 10.0503C19 5.0725 14.95 1 10 1C5.05 1 1 5.0725 1 10.0503Z" fill="currentColor"/>
  </symbol>
  <symbol id="heart-black-24-icon" width="24" height="25" viewBox="0 0 24 25">
    <path d="M11.9995 21.5C11.6985 21.4996 11.4045 21.4086 11.1558 21.2389C7.47189 18.7381 5.87673 17.0234 4.99689 15.9514C3.12189 13.6663 2.22423 11.3202 2.24954 8.77953C2.27908 5.86813 4.61486 3.5 7.45642 3.5C9.52267 3.5 10.9538 4.66391 11.7872 5.63328C11.8136 5.66368 11.8462 5.68805 11.8829 5.70476C11.9195 5.72146 11.9593 5.73011 11.9995 5.73011C12.0398 5.73011 12.0796 5.72146 12.1162 5.70476C12.1529 5.68805 12.1855 5.66368 12.2119 5.63328C13.0453 4.66297 14.4764 3.5 16.5427 3.5C19.3842 3.5 21.72 5.86812 21.7495 8.78C21.7749 11.3211 20.8763 13.6672 19.0022 15.9519C18.1224 17.0239 16.5272 18.7386 12.8433 21.2394C12.5946 21.4089 12.3006 21.4998 11.9995 21.5Z" fill="currentColor"/>
  </symbol>
  <symbol id="heart-black-icon" width="20" height="20" viewBox="0 0 20 20">
    <path d="M13.7863 3.125C11.2504 3.125 10.0004 5.625 10.0004 5.625C10.0004 5.625 8.7504 3.125 6.21446 3.125C4.15352 3.125 2.52149 4.84922 2.5004 6.90664C2.45743 11.1773 5.88829 14.2145 9.64884 16.7668C9.75251 16.8373 9.87501 16.8751 10.0004 16.8751C10.1258 16.8751 10.2483 16.8373 10.352 16.7668C14.1121 14.2145 17.543 11.1773 17.5004 6.90664C17.4793 4.84922 15.8473 3.125 13.7863 3.125Z" fill="currentColor" stroke="currentColor" stroke-width="1.5" stroke-linecap="round" stroke-linejoin="round"/>
  </symbol>
  <symbol id="heart-white-icon" width="20" height="20" viewBox="0 0 20 20">
    <path d="M13.7863 3.125C11.2504 3.125 10.0004 5.625 10.0004 5.625C10.0004 5.625 8.7504 3.125 6.21446 3.125C4.15352 3.125 2.52149 4.84922 2.5004 6.90664C2.45743 11.1773 5.88829 14.2145 9.64884 16.7668C9.75251 16.8373 9.87501 16.8751 10.0004 16.8751C10.1258 16.8751 10.2483 16.8373 10.352 16.7668C14.1121 14.2145 17.543 11.1773 17.5004 6.90664C17.4793 4.84922 15.8473 3.125 13.7863 3.125V3.125Z" stroke="currentColor" stroke-width="1.5" stroke-linecap="round" stroke-linejoin="round" fill="none"/>
  </symbol>
  <symbol id="instagram-icon" width="20" height="21" viewBox="0 0 20 21">
    <path d="M9.49787 7.66546C7.93707 7.66546 6.66333 8.9392 6.66333 10.5C6.66333 12.0608 7.93707 13.3345 9.49787 13.3345C11.0587 13.3345 12.3324 12.0608 12.3324 10.5C12.3324 8.9392 11.0587 7.66546 9.49787 7.66546ZM17.9994 10.5C17.9994 9.32621 18.01 8.16305 17.9441 6.99138C17.8782 5.63046 17.5677 4.42264 16.5725 3.42747C15.5752 2.43017 14.3695 2.12184 13.0086 2.05592C11.8348 1.99 10.6717 2.00063 9.5 2.00063C8.32621 2.00063 7.16305 1.99 5.99138 2.05592C4.63046 2.12184 3.42264 2.4323 2.42747 3.42747C1.43017 4.42477 1.12184 5.63046 1.05592 6.99138C0.99 8.16517 1.00063 9.32833 1.00063 10.5C1.00063 11.6717 0.99 12.837 1.05592 14.0086C1.12184 15.3695 1.4323 16.5774 2.42747 17.5725C3.42477 18.5698 4.63046 18.8782 5.99138 18.9441C7.16517 19.01 8.32833 18.9994 9.5 18.9994C10.6738 18.9994 11.837 19.01 13.0086 18.9441C14.3695 18.8782 15.5774 18.5677 16.5725 17.5725C17.5698 16.5752 17.8782 15.3695 17.9441 14.0086C18.0121 12.837 17.9994 11.6738 17.9994 10.5ZM9.49787 14.8613C7.08437 14.8613 5.13655 12.9135 5.13655 10.5C5.13655 8.08649 7.08437 6.13868 9.49787 6.13868C11.9114 6.13868 13.8592 8.08649 13.8592 10.5C13.8592 12.9135 11.9114 14.8613 9.49787 14.8613ZM14.0378 6.97862C13.4743 6.97862 13.0193 6.52356 13.0193 5.96006C13.0193 5.39655 13.4743 4.94149 14.0378 4.94149C14.6013 4.94149 15.0564 5.39655 15.0564 5.96006C15.0565 6.09386 15.0303 6.22639 14.9792 6.35004C14.9281 6.4737 14.853 6.58605 14.7584 6.68067C14.6638 6.77528 14.5515 6.8503 14.4278 6.90143C14.3041 6.95256 14.1716 6.97879 14.0378 6.97862Z" fill="currentColor"/>
  </symbol>
  <symbol id="logout-icon" width="18" height="18" viewBox="0 0 18 18">
    <path d="M5.625 9C5.625 8.85082 5.68426 8.70774 5.78975 8.60225C5.89524 8.49676 6.03832 8.4375 6.1875 8.4375H11.25V4.78125C11.25 3.65625 10.0621 2.8125 9 2.8125H3.65625C3.13428 2.81306 2.63384 3.02066 2.26475 3.38975C1.89566 3.75884 1.68806 4.25928 1.6875 4.78125V13.2188C1.68806 13.7407 1.89566 14.2412 2.26475 14.6103C2.63384 14.9793 3.13428 15.1869 3.65625 15.1875H9.28125C9.80322 15.1869 10.3037 14.9793 10.6728 14.6103C11.0418 14.2412 11.2494 13.7407 11.25 13.2188V9.5625H6.1875C6.03832 9.5625 5.89524 9.50324 5.78975 9.39775C5.68426 9.29226 5.625 9.14918 5.625 9ZM16.1476 8.60238L13.3351 5.78988C13.2288 5.68885 13.0872 5.63335 12.9405 5.63523C12.7938 5.63711 12.6537 5.69621 12.5499 5.79994C12.4462 5.90366 12.3871 6.0438 12.3852 6.19048C12.3834 6.33716 12.4388 6.47877 12.5399 6.58512L14.3919 8.4375H11.25V9.5625H14.3919L12.5399 11.4149C12.4855 11.4666 12.4419 11.5287 12.4119 11.5975C12.3818 11.6663 12.3658 11.7404 12.3649 11.8155C12.3639 11.8906 12.378 11.9651 12.4063 12.0346C12.4346 12.1042 12.4765 12.1673 12.5296 12.2204C12.5827 12.2735 12.6458 12.3154 12.7154 12.3437C12.7849 12.372 12.8594 12.3861 12.9345 12.3851C13.0096 12.3842 13.0837 12.3682 13.1525 12.3381C13.2213 12.3081 13.2834 12.2645 13.3351 12.2101L16.1476 9.39762C16.253 9.29214 16.3122 9.14912 16.3122 9C16.3122 8.85088 16.253 8.70786 16.1476 8.60238Z" fill="currentColor"/>
  </symbol>
  <symbol id="menu-icon" width="24" height="24" viewBox="0 0 24 24">
    <path d="M3.75 7.5H20.25M3.75 12H20.25M3.75 16.5H20.25" stroke="currentColor" stroke-width="1.5" stroke-miterlimit="10" stroke-linecap="round"/>
  </symbol>
  <symbol id="paper-plane" width="16" height="16" viewBox="0 0 16 16">
    <path d="M13.9945 1.06276L1.43443 5.79427L1.42614 5.79741C1.28904 5.85152 1.17159 5.94519 1.08944 6.06768C1.00611 6.19194 0.963168 6.33887 0.966488 6.48844C0.969798 6.63802 1.0192 6.78291 1.10794 6.90335C1.19665 7.02375 1.32034 7.11382 1.46214 7.16131L1.47478 7.16532L1.47695 7.16601L5.76634 8.99779C5.84575 9.02167 5.93003 9.02441 6.01084 9.00574C6.09206 8.98698 6.16693 8.94724 6.22799 8.89049L11.8918 3.62436C11.9144 3.6018 13.5591 1.50005 13.9945 1.06276C15.5591 1 14.3511 2.43463 14.3511 2.43463C14.3511 2.43463 14.2188 2.64735 14.1011 2.99132C14.0784 2.96862 14.1308 3.00361 14.1011 2.99132C14.1238 3.01401 14.6841 3.42114 14.0953 2.98364C14.1076 3.01329 14.1011 2.95922 14.1011 2.99132C14.1011 3.02341 10.9827 12.2336 10.6791 13.0743C9.48689 16.3751 9.97923 14.6696 6.95766 10.0561V9.86347L7.04299 9.70269L13.9945 1.06276ZM13.9945 1.06276C14.1602 1.02896 14.2142 1.03337 14.3511 1.06269C14.4881 1.09202 14.6083 1.12894 14.7074 1.22795M13.9945 1.06276L14.3511 1.06269L14.7074 1.22795M14.7074 1.22795C14.8065 1.32743 14.8746 1.45347 14.9036 1.59084C14.9325 1.72823 14.921 1.87104 14.8705 2.00204L10.1397 14.4993L14.7074 1.22795ZM10.1397 14.4993L9.56004 14.9083C9.71448 14.9092 9.729 14.8408 9.86339 14.8408C9.99159 14.7546 10.104 14.6514 10.1615 14.508L10.1397 14.4993C10.084 14.6382 9.98757 14.7573 9.86339 14.8408C9.74257 14.8835 9.70979 14.9092 9.56004 14.9083M10.1397 14.4993L9.56004 14.9083ZM10.1397 14.4993L9.56004 14.9083ZM10.1397 14.4993C9.83227 15.2658 8.85239 14.773 8.75239 14.4833C8.768 14.4563 8.74832 14.4718 8.74645 14.4655L6.95766 10.0561M9.56004 14.9083C9.26473 14.8948 8.87161 14.7569 8.77455 14.4757C8.77253 14.4703 8.77064 14.4646 8.7689 14.4588L8.768 14.4563L6.9357 10.1644M6.9357 10.1644L6.93606 10.1656L6.95766 10.0561M6.9357 10.1644C6.91182 10.085 6.90907 10.0007 6.92774 9.91985C6.9465 9.83863 7.00032 9.78308 7.04299 9.70269L6.92774 9.91985C6.98049 10.0614 6.93225 9.97238 6.95766 10.0561M6.9357 10.1644L7.11902 10.4539L6.95766 10.0561" fill="black"/>
    <path d="M13.9945 1.06276L1.43443 5.79427L1.42614 5.79741C1.28904 5.85152 1.17159 5.94519 1.08944 6.06768C1.00611 6.19194 0.963168 6.33887 0.966488 6.48844C0.969798 6.63802 1.0192 6.78291 1.10794 6.90335C1.19665 7.02375 1.32034 7.11382 1.46214 7.16131L1.47478 7.16532L1.47695 7.16601L5.76634 8.99779C5.84575 9.02167 5.93003 9.02441 6.01084 9.00574C6.09206 8.98698 6.16693 8.94724 6.22799 8.89049L11.8918 3.62436C11.9144 3.6018 13.5591 1.50005 13.9945 1.06276ZM13.9945 1.06276C15.5591 1 14.3511 2.43463 14.3511 2.43463C14.3511 2.43463 14.2188 2.64735 14.1011 2.99132M13.9945 1.06276L7.04299 9.70269M13.9945 1.06276C14.1602 1.02896 14.2142 1.03337 14.3511 1.06269M13.9945 1.06276L14.3511 1.06269M14.1011 2.99132C14.1308 3.00361 14.0784 2.96862 14.1011 2.99132ZM14.1011 2.99132C14.1238 3.01401 14.6841 3.42114 14.0953 2.98364C14.1076 3.01329 14.1011 2.95922 14.1011 2.99132ZM14.1011 2.99132C14.1011 3.02341 10.9827 12.2336 10.6791 13.0743C9.48689 16.3751 9.97923 14.6696 6.95766 10.0561M6.95766 10.0561L8.74645 14.4655C8.74832 14.4718 8.768 14.4563 8.75239 14.4833C8.85239 14.773 9.83227 15.2658 10.1397 14.4993M6.95766 10.0561L6.93606 10.1656L6.9357 10.1644M6.95766 10.0561C6.93225 9.97238 6.98049 10.0614 6.92774 9.91985M6.95766 10.0561L7.11902 10.4539L6.9357 10.1644M6.95766 10.0561V9.86347L7.04299 9.70269M7.04299 9.70269C7.00032 9.78308 6.9465 9.83863 6.92774 9.91985M7.04299 9.70269L6.92774 9.91985M14.3511 1.06269C14.4881 1.09202 14.6083 1.12894 14.7074 1.22795M14.3511 1.06269L14.7074 1.22795M14.7074 1.22795C14.8065 1.32743 14.8746 1.45347 14.9036 1.59084C14.9325 1.72823 14.921 1.87104 14.8705 2.00204L10.1397 14.4993M14.7074 1.22795L10.1397 14.4993M10.1397 14.4993L9.56004 14.9083M10.1397 14.4993L10.1615 14.508C10.104 14.6514 9.99159 14.7546 9.86339 14.8408M10.1397 14.4993C10.084 14.6382 9.98757 14.7573 9.86339 14.8408M9.56004 14.9083C9.71448 14.9092 9.729 14.8408 9.86339 14.8408M9.56004 14.9083C9.70979 14.9092 9.74257 14.8835 9.86339 14.8408M9.56004 14.9083C9.26473 14.8948 8.87161 14.7569 8.77455 14.4757C8.77253 14.4703 8.77064 14.4646 8.7689 14.4588L8.768 14.4563L6.9357 10.1644M6.9357 10.1644C6.91182 10.085 6.90907 10.0007 6.92774 9.91985" stroke="#112211" stroke-width="0.046875"/>
  </symbol>
  <symbol id="search-icon" width="24" height="24" viewBox="0 0 24 24">
    <path d="M16.9781 15.3281L16.9659 15.3444L16.9803 15.3588L21.3903 19.7688C21.5856 19.9875 21.6898 20.2727 21.6816 20.5658C21.6734 20.8591 21.5532 21.1382 21.3457 21.3457C21.1382 21.5532 20.8591 21.6734 20.5658 21.6816C20.2727 21.6898 19.9875 21.5856 19.7688 21.3903L15.3588 16.9803L15.3444 16.9659L15.3281 16.9781C13.9186 18.0369 12.2029 18.6085 10.44 18.6066C5.93701 18.6066 2.27344 14.943 2.27344 10.44C2.27344 5.93701 5.93701 2.27344 10.44 2.27344C14.943 2.27344 18.6066 5.93701 18.6066 10.44C18.6085 12.2029 18.0369 13.9186 16.9781 15.3281ZM4.56656 10.44V10.44C4.56843 11.9972 5.18783 13.49 6.28891 14.5911C7.38998 15.6922 8.88282 16.3116 10.44 16.3134H10.44C11.6017 16.3134 12.7372 15.969 13.7031 15.3236C14.669 14.6782 15.4218 13.7609 15.8664 12.6877C16.3109 11.6144 16.4272 10.4335 16.2006 9.29415C15.974 8.15481 15.4146 7.10827 14.5931 6.28685C13.7717 5.46544 12.7252 4.90605 11.5859 4.67942C10.4465 4.45279 9.26556 4.56911 8.19233 5.01365C7.1191 5.4582 6.2018 6.21101 5.55642 7.17689C4.91103 8.14278 4.56656 9.27834 4.56656 10.44Z" fill="#112211" stroke="#112211" stroke-width="0.046875"/>
  </symbol>
  <symbol id="settings-icon" width="18" height="19" viewBox="0 0 18 19">
    <path d="M9 11.1875C9.93198 11.1875 10.6875 10.432 10.6875 9.5C10.6875 8.56802 9.93198 7.8125 9 7.8125C8.06802 7.8125 7.3125 8.56802 7.3125 9.5C7.3125 10.432 8.06802 11.1875 9 11.1875Z" fill="currentColor"/>
    <path d="M16.5372 11.0469L16.5206 11.0335L15.4111 10.1634C15.3408 10.1078 15.2848 10.0364 15.2475 9.95489C15.2102 9.87342 15.1928 9.78427 15.1967 9.69477V9.28836C15.1931 9.19942 15.2108 9.11092 15.2481 9.03012C15.2855 8.94932 15.3414 8.87854 15.4115 8.82359L16.5206 7.95312L16.5372 7.93977C16.7082 7.79726 16.823 7.59856 16.861 7.37919C16.899 7.15982 16.8578 6.93408 16.7446 6.74234L15.2431 4.1443C15.2413 4.14185 15.2398 4.13926 15.2385 4.13656C15.1247 3.94748 14.9483 3.80421 14.7399 3.73164C14.5315 3.65907 14.3043 3.66178 14.0977 3.7393L14.0854 3.74387L12.7811 4.26875C12.6987 4.30204 12.6097 4.31528 12.5212 4.3074C12.4328 4.29951 12.3475 4.27072 12.2724 4.2234C12.157 4.15074 12.0399 4.08207 11.9208 4.01738C11.8436 3.97552 11.7773 3.9161 11.7273 3.84392C11.6773 3.77174 11.6449 3.68882 11.6329 3.60184L11.4363 2.21L11.4321 2.18469C11.3893 1.96911 11.2737 1.77483 11.1045 1.63449C10.9354 1.49415 10.7231 1.41632 10.5033 1.41406H7.49674C7.27387 1.41478 7.0584 1.49412 6.88829 1.63811C6.71819 1.78211 6.60436 1.98152 6.56685 2.20121L6.56369 2.2209L6.36787 3.61555C6.35586 3.70228 6.32376 3.78501 6.27414 3.85715C6.22452 3.92929 6.15875 3.98885 6.08205 4.03109C5.96264 4.09541 5.84539 4.16365 5.73049 4.2357C5.65548 4.28274 5.57039 4.31131 5.48221 4.31907C5.39402 4.32683 5.30525 4.31356 5.22318 4.28035L3.91783 3.75301L3.90552 3.74809C3.69862 3.67049 3.47105 3.66788 3.26242 3.74072C3.05379 3.81356 2.8773 3.95724 2.76365 4.14676L2.75908 4.15449L1.25545 6.7543C1.14211 6.94623 1.10075 7.17221 1.13875 7.39185C1.17675 7.61148 1.29164 7.81043 1.46287 7.95312L1.47939 7.96648L2.58892 8.8366C2.65919 8.89219 2.71526 8.96365 2.75254 9.04511C2.78982 9.12658 2.80724 9.21573 2.80338 9.30523V9.71164C2.8069 9.80058 2.78926 9.88908 2.75192 9.96988C2.71458 10.0507 2.65859 10.1215 2.58857 10.1764L1.47939 11.0469L1.46287 11.0602C1.29181 11.2027 1.17701 11.4014 1.13901 11.6208C1.10101 11.8402 1.14228 12.0659 1.25545 12.2577L2.75697 14.8557C2.7587 14.8582 2.76023 14.8607 2.76154 14.8634C2.87531 15.0525 3.05172 15.1958 3.26012 15.2684C3.46852 15.3409 3.69575 15.3382 3.90236 15.2607L3.91467 15.2561L5.21791 14.7312C5.30023 14.698 5.38928 14.6847 5.47773 14.6926C5.56618 14.7005 5.65148 14.7293 5.72662 14.7766C5.84193 14.8495 5.95912 14.9182 6.07818 14.9826C6.15538 15.0245 6.22165 15.0839 6.27167 15.1561C6.32168 15.2283 6.35403 15.3112 6.36611 15.3982L6.56158 16.79L6.5658 16.8153C6.60865 17.0312 6.72465 17.2258 6.89423 17.3662C7.06381 17.5065 7.2766 17.5842 7.49674 17.5859H10.5033C10.7262 17.5852 10.9416 17.5059 11.1117 17.3619C11.2818 17.2179 11.3957 17.0185 11.4332 16.7988L11.4363 16.7791L11.6322 15.3845C11.6444 15.2976 11.6767 15.2147 11.7267 15.1426C11.7766 15.0704 11.8427 15.0109 11.9197 14.9689C12.04 14.9042 12.1574 14.8357 12.2713 14.7643C12.3463 14.7173 12.4314 14.6887 12.5196 14.6809C12.6078 14.6732 12.6965 14.6864 12.7786 14.7196L14.084 15.2452L14.0963 15.2502C14.3032 15.3279 14.5308 15.3306 14.7394 15.2577C14.9481 15.1849 15.1246 15.0411 15.2381 14.8515C15.2395 14.8488 15.2411 14.8462 15.2427 14.8438L16.7442 12.2461C16.8578 12.0541 16.8993 11.8281 16.8614 11.6084C16.8234 11.3886 16.7085 11.1896 16.5372 11.0469V11.0469ZM11.8094 9.63219C11.7838 10.1766 11.6005 10.7019 11.2819 11.1441C10.9633 11.5863 10.5231 11.9264 10.0148 12.1231C9.50653 12.3198 8.95204 12.3645 8.41878 12.2519C7.88552 12.1392 7.39647 11.8741 7.0111 11.4887C6.62573 11.1033 6.36065 10.6142 6.24809 10.0809C6.13553 9.54765 6.18034 8.99316 6.37707 8.48488C6.5738 7.97661 6.91397 7.53644 7.35623 7.2179C7.79848 6.89937 8.32376 6.7162 8.86818 6.69066C9.25903 6.67346 9.64919 6.73777 10.0138 6.87951C10.3785 7.02125 10.7097 7.23732 10.9863 7.51398C11.2629 7.79064 11.4789 8.12183 11.6206 8.4865C11.7623 8.85117 11.8266 9.24134 11.8094 9.63219V9.63219Z" fill="currentColor"/>
  </symbol>
  <symbol id="support-icon" width="18" height="18" viewBox="0 0 18 18">
    <path d="M14.5685 3.43155C13.8385 2.69438 12.9701 2.1087 12.0131 1.70816C11.0561 1.30762 10.0295 1.10011 8.99204 1.09756C7.95462 1.095 6.92692 1.29746 5.96798 1.69328C5.00904 2.0891 4.13776 2.6705 3.40419 3.40407C2.67062 4.13764 2.08923 5.00892 1.6934 5.96786C1.29758 6.9268 1.09513 7.9545 1.09768 8.99192C1.10023 10.0293 1.30774 11.056 1.70828 12.013C2.10882 12.97 2.6945 13.8384 3.43167 14.5683C4.16162 15.3055 5.03003 15.8912 5.98701 16.2917C6.94399 16.6923 7.97068 16.8998 9.0081 16.9023C10.0455 16.9049 11.0732 16.7024 12.0322 16.3066C12.9911 15.9108 13.8624 15.3294 14.5959 14.5958C15.3295 13.8623 15.9109 12.991 16.3067 12.032C16.7026 11.0731 16.905 10.0454 16.9025 9.00797C16.8999 7.97055 16.6924 6.94386 16.2919 5.98688C15.8913 5.0299 15.3056 4.16149 14.5685 3.43155ZM6.75464 9.1469C6.7248 8.69035 6.83485 8.23556 7.07012 7.84316C7.30539 7.45076 7.65469 7.13942 8.07145 6.95063C8.48821 6.76185 8.95261 6.7046 9.40274 6.78653C9.85287 6.86845 10.2673 7.08566 10.5908 7.40917C10.9144 7.73269 11.1316 8.14714 11.2135 8.59727C11.2954 9.0474 11.2382 9.5118 11.0494 9.92856C10.8606 10.3453 10.5492 10.6946 10.1569 10.9299C9.76446 11.1652 9.30966 11.2752 8.85311 11.2454C8.30844 11.2093 7.79542 10.9766 7.40943 10.5906C7.02344 10.2046 6.79076 9.69157 6.75464 9.1469ZM15.1921 6.80409L11.8041 7.0094C11.7809 7.01062 11.7578 7.00617 11.7367 6.99642C11.7157 6.98668 11.6973 6.97195 11.6832 6.9535C11.5007 6.71438 11.287 6.50073 11.0479 6.31823C11.0295 6.30413 11.0147 6.28575 11.005 6.26468C10.9953 6.24361 10.9908 6.22047 10.992 6.19729L11.1973 2.80928C11.1986 2.7872 11.205 2.76572 11.2161 2.7466C11.2273 2.72748 11.2427 2.71125 11.2613 2.69923C11.2799 2.6872 11.301 2.67973 11.323 2.67741C11.345 2.67509 11.3672 2.678 11.3879 2.68588C12.2823 3.0266 13.0946 3.5527 13.7712 4.22962C14.4479 4.90654 14.9737 5.71897 15.3141 6.61354C15.322 6.6342 15.3249 6.65643 15.3226 6.67843C15.3203 6.70042 15.3128 6.72156 15.3008 6.74013C15.2888 6.75869 15.2725 6.77416 15.2534 6.78527C15.2343 6.79638 15.2128 6.80283 15.1907 6.80409H15.1921ZM6.80421 2.80928L7.00952 6.19729C7.01074 6.22047 7.00629 6.24361 6.99655 6.26468C6.98681 6.28575 6.97207 6.30413 6.95362 6.31823C6.7145 6.50073 6.50085 6.71438 6.31835 6.9535C6.30426 6.97195 6.28588 6.98668 6.2648 6.99642C6.24373 7.00617 6.22059 7.01062 6.19741 7.0094L2.8094 6.80409C2.78732 6.80283 2.76585 6.79638 2.74672 6.78527C2.7276 6.77416 2.71137 6.75869 2.69935 6.74013C2.68733 6.72156 2.67985 6.70042 2.67753 6.67843C2.67521 6.65643 2.67812 6.6342 2.686 6.61354C3.02655 5.71883 3.55258 4.90632 4.22951 4.22939C4.90644 3.55245 5.71895 3.02643 6.61366 2.68588C6.63432 2.678 6.65656 2.67509 6.67855 2.67741C6.70055 2.67973 6.72168 2.6872 6.74025 2.69923C6.75881 2.71125 6.77428 2.72748 6.78539 2.7466C6.79651 2.76572 6.80295 2.7872 6.80421 2.80928ZM2.8094 11.1958L6.19741 10.9905C6.22059 10.9893 6.24373 10.9937 6.2648 11.0035C6.28588 11.0132 6.30426 11.0279 6.31835 11.0464C6.50085 11.2855 6.7145 11.4992 6.95362 11.6817C6.97207 11.6958 6.98681 11.7141 6.99655 11.7352C7.00629 11.7563 7.01074 11.7794 7.00952 11.8026L6.80421 15.1906C6.80295 15.2127 6.79651 15.2342 6.78539 15.2533C6.77428 15.2724 6.75881 15.2886 6.74025 15.3007C6.72168 15.3127 6.70055 15.3202 6.67855 15.3225C6.65656 15.3248 6.63432 15.3219 6.61366 15.314C5.71895 14.9735 4.90644 14.4474 4.22951 13.7705C3.55258 13.0936 3.02655 12.2811 2.686 11.3864C2.67812 11.3657 2.67521 11.3435 2.67753 11.3215C2.67985 11.2995 2.68733 11.2783 2.69935 11.2598C2.71137 11.2412 2.7276 11.2257 2.74672 11.2146C2.76585 11.2035 2.78732 11.1971 2.8094 11.1958ZM11.1959 15.1906L10.9906 11.8026C10.9894 11.7794 10.9938 11.7563 11.0036 11.7352C11.0133 11.7141 11.0281 11.6958 11.0465 11.6817C11.2856 11.4992 11.4993 11.2855 11.6818 11.0464C11.6959 11.0279 11.7143 11.0132 11.7353 11.0035C11.7564 10.9937 11.7795 10.9893 11.8027 10.9905L15.1907 11.1958C15.2128 11.1971 15.2343 11.2035 15.2534 11.2146C15.2725 11.2257 15.2888 11.2412 15.3008 11.2598C15.3128 11.2783 15.3203 11.2995 15.3226 11.3215C15.3249 11.3435 15.322 11.3657 15.3141 11.3864C14.9736 12.2811 14.4476 13.0936 13.7706 13.7705C13.0937 14.4474 12.2812 14.9735 11.3865 15.314C11.3658 15.3219 11.3436 15.3248 11.3216 15.3225C11.2996 15.3202 11.2785 15.3127 11.2599 15.3007C11.2413 15.2886 11.2259 15.2724 11.2147 15.2533C11.2036 15.2342 11.1972 15.2127 11.1959 15.1906Z" fill="currentColor"/>
  </symbol>
  <symbol id="twitter-icon" width="20" height="21" viewBox="0 0 20 21">
    <path d="M19.7029 4.26137C19.0071 4.5697 18.2596 4.77803 17.4737 4.8722C18.2846 4.38703 18.8912 3.62342 19.1804 2.72387C18.4186 3.17636 17.5849 3.49486 16.7154 3.66553C16.1307 3.04125 15.3563 2.62747 14.5124 2.48843C13.6684 2.34938 12.8022 2.49286 12.0481 2.89658C11.2941 3.30029 10.6944 3.94167 10.3422 4.72112C9.99003 5.50057 9.90503 6.37449 10.1004 7.2072C8.55682 7.1297 7.04677 6.72849 5.66827 6.02962C4.28977 5.33075 3.07362 4.34983 2.09875 3.15053C1.76542 3.72553 1.57375 4.3922 1.57375 5.1022C1.57338 5.74136 1.73078 6.37073 2.03198 6.93448C2.33319 7.49822 2.76888 7.9789 3.30042 8.33387C2.68398 8.31425 2.08114 8.14769 1.54208 7.84803V7.89803C1.54202 8.79448 1.85211 9.66335 2.41974 10.3572C2.98736 11.051 3.77756 11.5271 4.65625 11.7047C4.0844 11.8595 3.48486 11.8823 2.90292 11.7714C3.15083 12.5427 3.63375 13.2172 4.28406 13.7005C4.93437 14.1837 5.71951 14.4515 6.52958 14.4664C5.15444 15.5459 3.45616 16.1314 1.70792 16.1289C1.39823 16.129 1.08881 16.1109 0.78125 16.0747C2.55581 17.2157 4.62153 17.8212 6.73125 17.8189C13.8729 17.8189 17.7771 11.9039 17.7771 6.77387C17.7771 6.6072 17.7729 6.43887 17.7654 6.2722C18.5248 5.72301 19.1803 5.04295 19.7013 4.26387L19.7029 4.26137Z" fill="currentColor"/>
  </symbol>
  <symbol id="user-icon" width="18" height="19" viewBox="0 0 18 19">
    <path d="M11.6946 2.77039C11.0104 2.03176 10.0549 1.625 9.0002 1.625C7.93989 1.625 6.98118 2.0293 6.3002 2.76336C5.61184 3.50551 5.27645 4.51414 5.3552 5.60328C5.5113 7.75203 7.14641 9.5 9.0002 9.5C10.854 9.5 12.4863 7.75238 12.6448 5.60398C12.7247 4.52469 12.3872 3.51816 11.6946 2.77039ZM15.1877 17.375H2.8127C2.65072 17.3771 2.49031 17.3431 2.34314 17.2754C2.19597 17.2077 2.06574 17.1081 1.96192 16.9837C1.7334 16.7105 1.64129 16.3375 1.7095 15.9603C2.00622 14.3143 2.93223 12.9316 4.3877 11.9609C5.68075 11.0993 7.31868 10.625 9.0002 10.625C10.6817 10.625 12.3197 11.0996 13.6127 11.9609C15.0682 12.9312 15.9942 14.3139 16.2909 15.96C16.3591 16.3372 16.267 16.7102 16.0385 16.9834C15.9347 17.1078 15.8045 17.2075 15.6573 17.2752C15.5101 17.343 15.3497 17.3771 15.1877 17.375Z" fill="currentColor"/>
  </symbol>
  <symbol id="youtube-icon" width="20" height="21" viewBox="0 0 20 21">
    <path d="M19.5829 5.56962C19.4696 5.16564 19.249 4.79991 18.9445 4.51128C18.6314 4.21379 18.2477 4.00098 17.8295 3.89295C16.2645 3.48045 9.99454 3.48045 9.99454 3.48045C7.38065 3.45071 4.7674 3.58151 2.16954 3.87212C1.75136 3.98813 1.36834 4.20569 1.05454 4.50545C0.746204 4.80212 0.522871 5.16795 0.406204 5.56878C0.125949 7.07857 -0.0102189 8.61157 -0.000462243 10.1471C-0.0104622 11.6813 0.125371 13.2138 0.406204 14.7255C0.520371 15.1246 0.742871 15.4888 1.05204 15.783C1.3612 16.0771 1.7462 16.2896 2.16954 16.4021C3.75537 16.8138 9.99454 16.8138 9.99454 16.8138C12.6118 16.8436 15.2283 16.7128 17.8295 16.4221C18.2477 16.3141 18.6314 16.1013 18.9445 15.8038C19.2489 15.5152 19.4693 15.1494 19.582 14.7455C19.8696 13.2362 20.0094 11.7026 19.9995 10.1663C20.0212 8.62345 19.8815 7.08259 19.5829 5.56878V5.56962ZM8.0012 13.0005V7.29462L13.2179 10.148L8.0012 13.0005Z" fill="currentColor"/>
  </symbol>


</svg>
