<svg xmlns="http://www.w3.org/2000/svg">
  <symbol id="add-icon" width="16" height="16" viewBox="0 0 16 16">
    <path d="M8 3.5V12.5V3.5ZM12.5 8H3.5H12.5Z" fill="currentColor"/>
    <path d="M8 3.5V12.5M12.5 8H3.5" stroke="currentColor" stroke-width="1.5" stroke-linecap="round" stroke-linejoin="round"/>
  </symbol>
  <symbol id="airplane-white" width="24" height="24" viewBox="0 0 24 24">
    <path d="M8.74733 21.75H7.49952C7.37414 21.75 7.25077 21.7185 7.14069 21.6585C7.03062 21.5984 6.93735 21.5118 6.86941 21.4064C6.80147 21.301 6.76104 21.1803 6.7518 21.0552C6.74257 20.9302 6.76483 20.8048 6.81655 20.6906L9.83811 14.0227L5.30108 13.9219L3.64639 15.9267C3.33092 16.3233 3.07921 16.5 2.43702 16.5H1.59702C1.46402 16.5043 1.33195 16.4764 1.212 16.4188C1.09205 16.3612 0.987757 16.2755 0.907956 16.1691C0.796393 16.0186 0.686706 15.7636 0.793581 15.3998L1.72264 12.0717C1.72967 12.0469 1.73811 12.022 1.74749 11.9977C1.74795 11.9953 1.74795 11.9929 1.74749 11.9906C1.73781 11.9663 1.72951 11.9414 1.72264 11.9161L0.792643 8.56687C0.691862 8.21016 0.802018 7.96078 0.912643 7.81406C0.986929 7.71549 1.08331 7.63573 1.19403 7.58118C1.30475 7.52664 1.42672 7.49883 1.55014 7.5H2.43702C2.91655 7.5 3.38202 7.71516 3.65577 8.0625L5.27624 10.0336L9.83811 9.96609L6.81749 3.30984C6.7657 3.19568 6.74335 3.07036 6.75249 2.94533C6.76163 2.8203 6.80196 2.69956 6.8698 2.59414C6.93764 2.48872 7.03082 2.40198 7.14083 2.34186C7.25083 2.28175 7.37416 2.25016 7.49952 2.25H8.76092C8.9369 2.25354 9.10983 2.29667 9.26685 2.3762C9.42388 2.45572 9.56097 2.5696 9.66796 2.70937L15.5297 9.83438L18.2376 9.76312C18.4359 9.75234 18.9853 9.74859 19.1123 9.74859C21.7026 9.75 23.2495 10.5909 23.2495 12C23.2495 12.4434 23.0723 13.2656 21.8869 13.7887C21.187 14.0981 20.2533 14.2547 19.1114 14.2547C18.9858 14.2547 18.4378 14.2509 18.2367 14.2402L15.5292 14.168L9.65296 21.293C9.54588 21.4321 9.40891 21.5454 9.25216 21.6246C9.0954 21.7037 8.92288 21.7465 8.74733 21.75Z" fill="currentColor"/>
  </symbol>
  <symbol id="bed-white" width="24" height="24" viewBox="0 0 24 24">
    <path d="M20.25 10.8141C19.7772 10.6065 19.2664 10.4996 18.75 10.5H5.25C4.73368 10.4995 4.22288 10.6063 3.75 10.8136C3.08166 11.1059 2.51294 11.5865 2.11336 12.1968C1.71377 12.8071 1.50064 13.5205 1.5 14.25V19.5C1.5 19.6989 1.57902 19.8897 1.71967 20.0303C1.86032 20.171 2.05109 20.25 2.25 20.25C2.44891 20.25 2.63968 20.171 2.78033 20.0303C2.92098 19.8897 3 19.6989 3 19.5V19.125C3.00122 19.0259 3.04112 18.9312 3.11118 18.8612C3.18124 18.7911 3.27592 18.7512 3.375 18.75H20.625C20.7241 18.7512 20.8188 18.7911 20.8888 18.8612C20.9589 18.9312 20.9988 19.0259 21 19.125V19.5C21 19.6989 21.079 19.8897 21.2197 20.0303C21.3603 20.171 21.5511 20.25 21.75 20.25C21.9489 20.25 22.1397 20.171 22.2803 20.0303C22.421 19.8897 22.5 19.6989 22.5 19.5V14.25C22.4993 13.5206 22.2861 12.8073 21.8865 12.1971C21.4869 11.5869 20.9183 11.1063 20.25 10.8141ZM17.625 3.75H6.375C5.67881 3.75 5.01113 4.02656 4.51884 4.51884C4.02656 5.01113 3.75 5.67881 3.75 6.375V9.75C3.75002 9.77906 3.75679 9.80771 3.76979 9.8337C3.78278 9.85969 3.80163 9.8823 3.82486 9.89976C3.84809 9.91721 3.87505 9.92903 3.90363 9.93428C3.93221 9.93953 3.96162 9.93806 3.98953 9.93C4.39896 9.81025 4.82341 9.74964 5.25 9.75H5.44828C5.49456 9.75029 5.53932 9.73346 5.57393 9.70274C5.60855 9.67202 5.63058 9.62958 5.63578 9.58359C5.67669 9.21712 5.85115 8.87856 6.12586 8.63256C6.40056 8.38656 6.75625 8.25037 7.125 8.25H9.75C10.119 8.25003 10.475 8.38606 10.75 8.63209C11.025 8.87812 11.1997 9.21688 11.2406 9.58359C11.2458 9.62958 11.2679 9.67202 11.3025 9.70274C11.3371 9.73346 11.3818 9.75029 11.4281 9.75H12.5747C12.621 9.75029 12.6657 9.73346 12.7003 9.70274C12.735 9.67202 12.757 9.62958 12.7622 9.58359C12.8031 9.21736 12.9773 8.87899 13.2517 8.63303C13.5261 8.38706 13.8815 8.25072 14.25 8.25H16.875C17.244 8.25003 17.6 8.38606 17.875 8.63209C18.15 8.87812 18.3247 9.21688 18.3656 9.58359C18.3708 9.62958 18.3929 9.67202 18.4275 9.70274C18.4621 9.73346 18.5068 9.75029 18.5531 9.75H18.75C19.1766 9.74979 19.6011 9.81057 20.0105 9.93047C20.0384 9.93854 20.0679 9.94 20.0965 9.93473C20.1251 9.92945 20.1521 9.91759 20.1753 9.90009C20.1986 9.88258 20.2174 9.8599 20.2304 9.83385C20.2433 9.8078 20.2501 9.7791 20.25 9.75V6.375C20.25 5.67881 19.9734 5.01113 19.4812 4.51884C18.9889 4.02656 18.3212 3.75 17.625 3.75Z" fill="currentColor"/>
  </symbol>
  <symbol id="instagram-icon" width="20" height="21" viewBox="0 0 20 21">
    <path d="M9.49787 7.66546C7.93707 7.66546 6.66333 8.9392 6.66333 10.5C6.66333 12.0608 7.93707 13.3345 9.49787 13.3345C11.0587 13.3345 12.3324 12.0608 12.3324 10.5C12.3324 8.9392 11.0587 7.66546 9.49787 7.66546ZM17.9994 10.5C17.9994 9.32621 18.01 8.16305 17.9441 6.99138C17.8782 5.63046 17.5677 4.42264 16.5725 3.42747C15.5752 2.43017 14.3695 2.12184 13.0086 2.05592C11.8348 1.99 10.6717 2.00063 9.5 2.00063C8.32621 2.00063 7.16305 1.99 5.99138 2.05592C4.63046 2.12184 3.42264 2.4323 2.42747 3.42747C1.43017 4.42477 1.12184 5.63046 1.05592 6.99138C0.99 8.16517 1.00063 9.32833 1.00063 10.5C1.00063 11.6717 0.99 12.837 1.05592 14.0086C1.12184 15.3695 1.4323 16.5774 2.42747 17.5725C3.42477 18.5698 4.63046 18.8782 5.99138 18.9441C7.16517 19.01 8.32833 18.9994 9.5 18.9994C10.6738 18.9994 11.837 19.01 13.0086 18.9441C14.3695 18.8782 15.5774 18.5677 16.5725 17.5725C17.5698 16.5752 17.8782 15.3695 17.9441 14.0086C18.0121 12.837 17.9994 11.6738 17.9994 10.5ZM9.49787 14.8613C7.08437 14.8613 5.13655 12.9135 5.13655 10.5C5.13655 8.08649 7.08437 6.13868 9.49787 6.13868C11.9114 6.13868 13.8592 8.08649 13.8592 10.5C13.8592 12.9135 11.9114 14.8613 9.49787 14.8613ZM14.0378 6.97862C13.4743 6.97862 13.0193 6.52356 13.0193 5.96006C13.0193 5.39655 13.4743 4.94149 14.0378 4.94149C14.6013 4.94149 15.0564 5.39655 15.0564 5.96006C15.0565 6.09386 15.0303 6.22639 14.9792 6.35004C14.9281 6.4737 14.853 6.58605 14.7584 6.68067C14.6638 6.77528 14.5515 6.8503 14.4278 6.90143C14.3041 6.95256 14.1716 6.97879 14.0378 6.97862Z" fill="currentColor"/>
  </symbol>
  <symbol id="facebook-icon" width="20" height="21" viewBox="0 0 20 21">
    <path fill-rule="evenodd" clip-rule="evenodd" d="M1 10.0503C1 14.5248 4.24975 18.2455 8.5 19V12.4998H6.25V10H8.5V7.99975C8.5 5.74975 9.94975 4.50025 12.0002 4.50025C12.6497 4.50025 13.3503 4.6 13.9998 4.69975V7H12.85C11.7498 7 11.5 7.54975 11.5 8.25025V10H13.9L13.5002 12.4998H11.5V19C15.7502 18.2455 19 14.5255 19 10.0503C19 5.0725 14.95 1 10 1C5.05 1 1 5.0725 1 10.0503Z" fill="currentColor"/>
  </symbol>
  <symbol id="add-icon" width="16" height="16" viewBox="0 0 16 16">
    <path d="M8 3.5V12.5V3.5ZM12.5 8H3.5H12.5Z" fill="currentColor"/>
    <path d="M8 3.5V12.5M12.5 8H3.5" stroke="currentColor" stroke-width="1.5" stroke-linecap="round" stroke-linejoin="round"/>
  </symbol>
  <symbol id="paper-plane" width="16" height="16" viewBox="0 0 16 16">
    <path d="M13.9925 1.07153L13.9925 1.07155L1.49156 5.80311L1.48327 5.80625V5.80537C1.34617 5.85948 1.22872 5.95403 1.14657 6.07652C1.06324 6.20077 1.0203 6.34771 1.02362 6.49728C1.02693 6.64685 1.07633 6.79175 1.16507 6.91219C1.25378 7.03258 1.37747 7.12266 1.51927 7.17015C1.51933 7.17017 1.51939 7.17019 1.51945 7.17021L1.53191 7.17416L1.53408 7.17485L1.53403 7.17495L5.82347 9.00663C5.90288 9.03051 5.98716 9.03325 6.06797 9.01458C6.14919 8.99582 6.22406 8.95608 6.28512 8.89933L13.1708 2.48337C13.1709 2.48327 13.171 2.48317 13.1711 2.48307C13.1937 2.46051 13.2205 2.44261 13.25 2.43038C13.2797 2.4181 13.3115 2.41178 13.3436 2.41178C13.3757 2.41178 13.4075 2.4181 13.4371 2.43038C13.4668 2.44267 13.4937 2.46067 13.5164 2.48337C13.5391 2.50606 13.5571 2.533 13.5694 2.56266C13.5817 2.59231 13.588 2.62409 13.588 2.65619C13.588 2.68828 13.5817 2.72007 13.5694 2.74972C13.5572 2.77924 13.5393 2.80608 13.5167 2.82872C13.5166 2.82881 13.5165 2.82891 13.5164 2.82901L7.10012 9.71152L13.9925 1.07153ZM13.9925 1.07153C14.1235 1.02174 14.266 1.01086 14.4029 1.04018C14.5399 1.0695 14.6654 1.13778 14.7645 1.23679M13.9925 1.07153L14.7645 1.23679M14.7645 1.23679C14.8636 1.33626 14.9317 1.46231 14.9607 1.59968C14.9896 1.73706 14.9781 1.87988 14.9276 2.01088L14.9276 2.01102L10.1968 14.5081L14.7645 1.23679ZM9.46858 14.9999H9.49983C9.65427 15.0008 9.80542 14.9552 9.9336 14.8691C10.0618 14.7829 10.1611 14.6602 10.2186 14.5168L10.1967 14.5085L10.1967 14.5083C10.141 14.6472 10.0447 14.7661 9.92052 14.8496C9.79624 14.9331 9.64971 14.9774 9.49996 14.9765H9.49983H9.4691M9.46858 14.9999L9.46963 14.9765C9.46945 14.9765 9.46928 14.9765 9.4691 14.9765M9.46858 14.9999V14.9765H9.4691M9.46858 14.9999C9.16264 14.9862 8.90952 14.7818 8.80952 14.4921C8.80733 14.4862 8.80545 14.4806 8.80358 14.4743L6.97077 10.1812M9.4691 14.9765C9.17379 14.963 8.92874 14.7657 8.83168 14.4845L8.83151 14.484C8.82949 14.4786 8.82777 14.4734 8.82603 14.4676L8.82617 14.4675L8.82513 14.4651L6.99283 10.1732M6.99283 10.1732C6.99295 10.1736 6.99307 10.174 6.99319 10.1744L6.97077 10.1812M6.99283 10.1732C6.96895 10.0938 6.9662 10.0095 6.98487 9.92868C7.00363 9.84747 7.04336 9.7726 7.1001 9.71155L6.96204 9.9234C6.94235 10.0086 6.94536 10.0975 6.97077 10.1812M6.99283 10.1732L6.99232 10.172L6.97077 10.1812" fill="currentColor" stroke="currentColor" stroke-width="0.046875"/>
  </symbol>
  <symbol id="twitter-icon" width="20" height="21" viewBox="0 0 20 21">
    <path d="M19.7029 4.26137C19.0071 4.5697 18.2596 4.77803 17.4737 4.8722C18.2846 4.38703 18.8912 3.62342 19.1804 2.72387C18.4186 3.17636 17.5849 3.49486 16.7154 3.66553C16.1307 3.04125 15.3563 2.62747 14.5124 2.48843C13.6684 2.34938 12.8022 2.49286 12.0481 2.89658C11.2941 3.30029 10.6944 3.94167 10.3422 4.72112C9.99003 5.50057 9.90503 6.37449 10.1004 7.2072C8.55682 7.1297 7.04677 6.72849 5.66827 6.02962C4.28977 5.33075 3.07362 4.34983 2.09875 3.15053C1.76542 3.72553 1.57375 4.3922 1.57375 5.1022C1.57338 5.74136 1.73078 6.37073 2.03198 6.93448C2.33319 7.49822 2.76888 7.9789 3.30042 8.33387C2.68398 8.31425 2.08114 8.14769 1.54208 7.84803V7.89803C1.54202 8.79448 1.85211 9.66335 2.41974 10.3572C2.98736 11.051 3.77756 11.5271 4.65625 11.7047C4.0844 11.8595 3.48486 11.8823 2.90292 11.7714C3.15083 12.5427 3.63375 13.2172 4.28406 13.7005C4.93437 14.1837 5.71951 14.4515 6.52958 14.4664C5.15444 15.5459 3.45616 16.1314 1.70792 16.1289C1.39823 16.129 1.08881 16.1109 0.78125 16.0747C2.55581 17.2157 4.62153 17.8212 6.73125 17.8189C13.8729 17.8189 17.7771 11.9039 17.7771 6.77387C17.7771 6.6072 17.7729 6.43887 17.7654 6.2722C18.5248 5.72301 19.1803 5.04295 19.7013 4.26387L19.7029 4.26137Z" fill="currentColor"/>
  </symbol>
  <symbol id="youtube-icon" width="20" height="21" viewBox="0 0 20 21">
    <path d="M19.5829 5.56962C19.4696 5.16564 19.249 4.79991 18.9445 4.51128C18.6314 4.21379 18.2477 4.00098 17.8295 3.89295C16.2645 3.48045 9.99454 3.48045 9.99454 3.48045C7.38065 3.45071 4.7674 3.58151 2.16954 3.87212C1.75136 3.98813 1.36834 4.20569 1.05454 4.50545C0.746204 4.80212 0.522871 5.16795 0.406204 5.56878C0.125949 7.07857 -0.0102189 8.61157 -0.000462243 10.1471C-0.0104622 11.6813 0.125371 13.2138 0.406204 14.7255C0.520371 15.1246 0.742871 15.4888 1.05204 15.783C1.3612 16.0771 1.7462 16.2896 2.16954 16.4021C3.75537 16.8138 9.99454 16.8138 9.99454 16.8138C12.6118 16.8436 15.2283 16.7128 17.8295 16.4221C18.2477 16.3141 18.6314 16.1013 18.9445 15.8038C19.2489 15.5152 19.4693 15.1494 19.582 14.7455C19.8696 13.2362 20.0094 11.7026 19.9995 10.1663C20.0212 8.62345 19.8815 7.08259 19.5829 5.56878V5.56962ZM8.0012 13.0005V7.29462L13.2179 10.148L8.0012 13.0005Z" fill="currentColor"/>
  </symbol>
</svg>
