<svg width="28" height="25" viewBox="0 0 28 25" fill="none" xmlns="http://www.w3.org/2000/svg">
<path fill-rule="evenodd" clip-rule="evenodd" d="M21.7626 7.9898C20.3489 5.04026 17.4017 3.00754 13.4702 3.00754C7.85552 3.00754 4.35352 7.1534 4.35352 12.1948C4.35352 15.4132 5.73301 18.2436 8.20061 19.8843C8.34121 19.7791 8.42582 19.7108 8.42582 19.7108C9.65662 18.9077 10.8573 18.0624 12.0258 17.1765C9.82442 16.5287 8.71272 14.4223 8.71272 12.1948C8.71272 9.5498 10.3601 6.975 13.5021 6.975C16.269 6.975 18.0793 9.2686 18.274 11.7501C19.4868 10.5464 20.6507 9.292 21.7626 7.9898ZM13.0601 21.3736C16.5418 18.9057 19.7611 16.0866 22.6652 12.963C22.3328 17.6795 18.9335 21.382 13.5052 21.382C13.3553 21.382 13.2069 21.3791 13.0601 21.3736Z" fill="#8DD3BB"/>
<path d="M25.3179 0.537849C20.8631 -1.10011 17.6607 2.42437 17.6607 2.42437L20.6974 4.18979C21.835 3.53652 22.3417 4.17067 22.4723 4.51802C22.5648 4.76339 22.4405 5.03108 22.3417 5.17766L21.6024 6.1114C17.6129 10.9233 12.9223 15.1042 7.68682 18.5203C7.68682 18.5203 6.10632 19.795 5.26502 19.8141C4.55762 19.8301 4.24222 19.2341 4.83802 18.3801L3.37222 15.0723C3.37222 15.0723 -0.441984 17.5707 0.297216 21.9619C0.609516 23.8166 2.35252 25.1359 4.20392 24.8013C5.15032 24.6324 6.31982 24.1703 7.75052 23.2239L10.3826 21.5031C15.6181 18.0806 20.3119 13.8869 24.2982 9.0686L25.2032 7.9756C26.567 6.4237 27.1789 5.1458 27.386 4.13562C27.7046 2.59007 26.7901 1.07959 25.3179 0.537849Z" fill="#8DD3BB"/>
</svg>
